<svg width="548" height="156" viewBox="0 0 548 156" fill="none" xmlns="http://www.w3.org/2000/svg">
<g filter="url(#filter0_d_11964_115493)">
<path d="M21 29.6713C21 17.1503 31.1436 7 43.6565 7H110.011C122.524 7 132.667 17.1503 132.667 29.6713V99.0884C132.667 111.609 122.524 121.76 110.011 121.76H43.6565C31.1436 121.76 21 111.609 21 99.0884V29.6713Z" fill="white"/>
</g>
<path d="M95.2956 40.8706C95.2956 38.4531 94.8194 36.0593 93.8943 33.8258C92.9692 31.5923 91.6132 29.5629 89.9037 27.8535C88.1943 26.144 86.1649 24.788 83.9314 23.8629C81.6979 22.9377 79.3041 22.4616 76.8866 22.4616C74.4691 22.4616 72.0752 22.9377 69.8417 23.8629C67.6083 24.788 65.5789 26.144 63.8694 27.8535C62.16 29.5629 60.804 31.5923 59.8788 33.8258C58.9537 36.0593 58.4775 38.4531 58.4775 40.8706L62.73 40.8706C62.73 39.0115 63.0962 37.1707 63.8076 35.4531C64.519 33.7356 65.5618 32.1749 66.8764 30.8604C68.1909 29.5458 69.7515 28.5031 71.4691 27.7916C73.1866 27.0802 75.0275 26.714 76.8866 26.714C78.7456 26.714 80.5865 27.0802 82.3041 27.7916C84.0216 28.5031 85.5822 29.5458 86.8968 30.8604C88.2114 32.1749 89.2541 33.7356 89.9656 35.4531C90.677 37.1707 91.0432 39.0115 91.0432 40.8706L95.2956 40.8706Z" fill="#F9C338"/>
<path d="M113.082 46.4999C113.082 43.3905 110.561 40.8699 107.452 40.8699H46.3208C43.2115 40.8699 40.6908 43.3905 40.6908 46.4999V76.9654C40.6908 93.1653 53.8234 106.298 70.0233 106.298H83.7496C99.9494 106.298 113.082 93.1653 113.082 76.9654V46.4999Z" fill="#576AFF"/>
<path d="M53.3596 73.9953C54.9121 79.0197 58.0325 83.4152 62.2638 86.5379C66.4951 89.6607 71.6151 91.3467 76.8739 91.3492C82.1328 91.3516 87.2543 89.6703 91.4885 86.5514C95.7227 83.4326 98.8471 79.04 100.404 74.017L90.9935 71.0996C90.0594 74.1127 88.1851 76.7476 85.6452 78.6185C83.1053 80.4894 80.0331 81.498 76.8785 81.4965C73.7239 81.495 70.6526 80.4837 68.1144 78.6104C65.5762 76.7372 63.7044 74.1005 62.7731 71.0865L53.3596 73.9953Z" fill="#F9C338"/>
<path fill-rule="evenodd" clip-rule="evenodd" d="M473.278 42.0868C473.278 38.8385 470.644 36.2053 467.396 36.2053C464.148 36.2053 461.515 38.8385 461.515 42.0868L461.515 74.0671C461.515 84.0147 469.625 92.0789 479.63 92.0789H483.202V80.3161L479.663 80.2233C476.141 80.2233 473.278 77.5686 473.278 74.0671L473.278 42.0868Z" fill="#576AFF"/>
<path fill-rule="evenodd" clip-rule="evenodd" d="M544.661 47.4552C547.573 46.0159 548.766 42.4885 547.327 39.5765C545.888 36.6646 542.36 35.4708 539.448 36.9102L501.099 55.8656C498.187 57.3049 496.993 60.8323 498.433 63.7443C498.865 64.6184 499.485 65.3378 500.22 65.8775C501.21 66.6337 502.447 67.0828 503.788 67.0828H529.712C533.362 67.0875 536.32 70.0481 536.32 73.6994C536.32 77.3537 533.357 80.3161 529.703 80.3161H524.906L483.203 80.3161V92.0789L524.925 92.0789V92.0396H529.641C539.781 92.0396 548.001 83.8196 548.001 73.6798C548.001 63.7293 540.085 55.6276 530.207 55.3285C530.101 55.3228 529.994 55.32 529.887 55.32H529.657L529.641 55.32H528.749L544.661 47.4552Z" fill="#576AFF"/>
<path fill-rule="evenodd" clip-rule="evenodd" d="M445.127 73.9371V42.0868C445.127 38.8385 447.761 36.2053 451.009 36.2053C454.257 36.2053 456.89 38.8385 456.89 42.0868V74.1641C456.89 74.5948 456.844 75.0147 456.756 75.4191C455.794 84.61 448.326 91.7619 438.868 91.7619L434.129 91.7806H359.141C355.893 91.7806 353.26 89.1474 353.26 85.8992C353.26 82.6509 355.893 80.0177 359.141 80.0177L434.129 80.0178L438.834 80.0478C442.224 80.0478 444.869 77.273 445.127 73.9371Z" fill="#576AFF"/>
<path fill-rule="evenodd" clip-rule="evenodd" d="M353.26 42.0868V58.2607V58.4445V69.6559C353.26 72.9042 355.893 75.5374 359.141 75.5374H434.681C437.929 75.5374 440.562 72.9042 440.562 69.6559V59.3635V58.2607V42.0868C440.562 38.8385 437.929 36.2053 434.681 36.2053C431.433 36.2053 428.799 38.8385 428.799 42.0868V58.2607C428.799 61.3059 426.331 63.7745 423.286 63.7745H370.536C367.491 63.7745 365.023 61.3059 365.023 58.2607V42.0868C365.023 38.8385 362.389 36.2053 359.141 36.2053C355.893 36.2053 353.26 38.8385 353.26 42.0868ZM389.464 40.2134H389.404V48.2357H388.485C387.403 48.2357 386.527 49.1125 386.527 50.194C386.527 51.2755 387.403 52.1522 388.485 52.1522H389.404V52.1649H401.472C404.773 52.1649 407.448 49.4895 407.448 46.1892C407.448 42.8888 404.773 40.2134 401.472 40.2134H393.381V38.2141C393.381 37.1325 392.505 36.2556 391.423 36.2556C390.341 36.2556 389.464 37.1325 389.464 38.2141V40.2134ZM395.755 44.2152C394.659 44.2152 393.771 45.1036 393.771 46.1995C393.771 47.2954 394.659 48.1838 395.755 48.1838H401.515C402.611 48.1838 403.5 47.2954 403.5 46.1995C403.5 45.1036 402.611 44.2152 401.515 44.2152H395.755Z" fill="#576AFF"/>
<path fill-rule="evenodd" clip-rule="evenodd" d="M318.644 42.2112C318.644 38.9274 315.982 36.2654 312.698 36.2654C309.414 36.2654 306.752 38.9274 306.752 42.2112L306.752 86.1932C306.752 89.477 309.414 92.139 312.698 92.139C312.712 92.139 312.726 92.139 312.74 92.1389C312.754 92.139 312.768 92.139 312.782 92.139H338.697C341.996 92.139 344.67 89.4647 344.67 86.1657C344.67 82.8667 341.996 80.1923 338.697 80.1923H318.644L318.644 42.2112Z" fill="#F9C338"/>
<path fill-rule="evenodd" clip-rule="evenodd" d="M247.485 91.3213C244.604 89.8214 243.484 86.2698 244.984 83.3886L267.898 39.3722C269.397 36.491 272.949 35.3712 275.83 36.8711C276.686 37.3167 277.387 37.9435 277.91 38.6801C278.168 38.993 278.397 39.3375 278.592 39.7118L301.492 83.7016C302.991 86.5828 301.872 90.1344 298.99 91.6343C296.109 93.1341 292.558 92.0143 291.058 89.1331L286.288 79.9708H260.025L255.418 88.8201C253.918 91.7013 250.366 92.8211 247.485 91.3213ZM266.148 68.2079H280.165L273.156 54.7449L266.148 68.2079Z" fill="#F9C338"/>
<path fill-rule="evenodd" clip-rule="evenodd" d="M200.023 42.1468C200.023 38.8986 202.657 36.2654 205.905 36.2654L200.023 42.1468ZM200.023 42.1523L200.023 86.2548C200.023 86.2558 200.023 86.2567 200.023 86.2576C200.023 89.5058 202.657 92.139 205.905 92.139H233.842C237.09 92.139 239.723 89.5058 239.723 86.2576C239.723 83.0093 237.09 80.3761 233.842 80.3761H211.786L211.786 70.0836H227.225C230.473 70.0836 233.107 67.4504 233.107 64.2022C233.107 60.954 230.473 58.3208 227.225 58.3208H211.786L211.786 48.0282H233.842C237.09 48.0282 239.723 45.395 239.723 42.1468C239.723 38.8986 237.09 36.2654 233.842 36.2654H205.905" fill="#F9C338"/>
<path fill-rule="evenodd" clip-rule="evenodd" d="M187.246 83.9565C182.007 89.1957 174.901 92.139 167.492 92.139V91.9881C167.491 92.0715 167.424 92.139 167.34 92.139H155.729C152.481 92.139 149.848 89.5058 149.848 86.2576L149.848 42.1501V42.1468C149.848 41.8966 149.863 41.6501 149.894 41.4081C150.232 38.7049 152.406 36.5722 155.128 36.2957C155.325 36.2757 155.526 36.2654 155.729 36.2654L155.731 36.2654L167.492 36.2654C174.901 36.2654 182.007 39.2087 187.246 44.4479C192.485 49.6871 195.429 56.7929 195.429 64.2022C195.429 71.6115 192.485 78.7173 187.246 83.9565ZM167.492 48.0205C171.784 48.0205 175.9 49.7253 178.934 52.76C181.969 55.7947 183.674 59.9105 183.674 64.2022C183.674 68.4939 181.969 72.6097 178.934 75.6444C175.9 78.6791 171.784 80.3839 167.492 80.3839L167.492 80.3761H161.611L161.611 48.0283H167.492L167.492 48.0205Z" fill="#F9C338"/>
<defs>
<filter id="filter0_d_11964_115493" x="0.793812" y="0.685566" width="152.079" height="155.172" filterUnits="userSpaceOnUse" color-interpolation-filters="sRGB">
<feFlood flood-opacity="0" result="BackgroundImageFix"/>
<feColorMatrix in="SourceAlpha" type="matrix" values="0 0 0 0 0 0 0 0 0 0 0 0 0 0 0 0 0 0 127 0" result="hardAlpha"/>
<feOffset dy="13.8918"/>
<feGaussianBlur stdDeviation="10.1031"/>
<feComposite in2="hardAlpha" operator="out"/>
<feColorMatrix type="matrix" values="0 0 0 0 0 0 0 0 0 0 0 0 0 0 0 0 0 0 0.15 0"/>
<feBlend mode="normal" in2="BackgroundImageFix" result="effect1_dropShadow_11964_115493"/>
<feBlend mode="normal" in="SourceGraphic" in2="effect1_dropShadow_11964_115493" result="shape"/>
</filter>
</defs>
</svg>
