<svg width="166" height="87" viewBox="0 0 166 87" fill="none" xmlns="http://www.w3.org/2000/svg">
<g filter="url(#filter0_d_11926_118156)">
<path d="M9 16.7366C9 9.15008 15.1501 3 22.7366 3H62.9673C70.5538 3 76.7039 9.15008 76.7039 16.7366V58.7965C76.7039 66.3831 70.5538 72.5331 62.9673 72.5331H22.7366C15.1501 72.5331 9 66.3831 9 58.7965V16.7366Z" fill="white"/>
</g>
<path d="M52.904 24.9277C52.904 23.6076 52.6439 22.3005 52.1388 21.0809C51.6336 19.8613 50.8931 18.7531 49.9597 17.8197C49.0263 16.8862 47.9181 16.1458 46.6985 15.6406C45.4789 15.1354 44.1717 14.8754 42.8516 14.8754C41.5315 14.8754 40.2244 15.1354 39.0048 15.6406C37.7852 16.1458 36.677 16.8862 35.7436 17.8197C34.8101 18.7531 34.0697 19.8613 33.5645 21.0809C33.0593 22.3005 32.7993 23.6076 32.7993 24.9277L35.1214 24.9277C35.1214 23.9126 35.3213 22.9074 35.7098 21.9695C36.0983 21.0316 36.6677 20.1794 37.3855 19.4616C38.1033 18.7438 38.9555 18.1744 39.8934 17.7859C40.8313 17.3974 41.8365 17.1975 42.8516 17.1975C43.8668 17.1975 44.872 17.3974 45.8099 17.7859C46.7478 18.1744 47.5999 18.7438 48.3178 19.4616C49.0356 20.1794 49.605 21.0316 49.9935 21.9695C50.3819 22.9074 50.5819 23.9126 50.5819 24.9277L52.904 24.9277Z" fill="#FEC803"/>
<path d="M62.6172 28.002C62.6172 26.3041 61.2408 24.9277 59.5429 24.9277H26.162C24.4641 24.9277 23.0877 26.3041 23.0877 28.002V44.6378C23.0877 53.4838 30.2588 60.6549 39.1048 60.6549H46.6001C55.4461 60.6549 62.6172 53.4838 62.6172 44.6378V28.002Z" fill="#576AFF"/>
<path d="M30.0059 43.016C30.8537 45.7597 32.5576 48.1598 34.8681 49.865C37.1786 51.5702 39.9744 52.4909 42.846 52.4922C45.7176 52.4935 48.5142 51.5755 50.8263 49.8724C53.1384 48.1693 54.8445 45.7708 55.6948 43.0279L50.556 41.4348C50.0459 43.0802 49.0225 44.519 47.6356 45.5406C46.2486 46.5622 44.571 47.1129 42.8485 47.1121C41.1259 47.1113 39.4488 46.5591 38.0628 45.5362C36.6768 44.5133 35.6547 43.0735 35.1462 41.4277L30.0059 43.016Z" fill="#F9C338"/>
<path fill-rule="evenodd" clip-rule="evenodd" d="M135.133 37.8838C136.577 37.8838 137.748 39.0547 137.748 40.499V54.414C137.801 55.9366 139.067 57.1548 140.603 57.1548H142.671V57.1606H155.137C155.19 57.1606 155.242 57.1622 155.294 57.1653V57.1491H157.36C158.93 57.1491 160.202 55.877 160.202 54.3079C160.202 52.7936 159.017 51.5561 157.524 51.4714C157.512 51.4717 157.5 51.4719 157.489 51.472C157.478 51.4722 157.467 51.4722 157.456 51.4722L145.939 51.4722C144.495 51.4722 143.324 50.3014 143.324 48.857C143.324 47.7444 144.019 46.794 144.998 46.4162L161.635 38.1929C162.93 37.5529 164.498 38.0837 165.138 39.3785C165.778 40.6733 165.247 42.2418 163.952 42.8818L157.162 46.2382H157.376C161.834 46.2382 165.447 49.852 165.447 54.3098C165.447 58.7677 161.834 62.3815 157.376 62.3815H155.363C155.288 62.3878 155.213 62.3911 155.137 62.3911H141.708C141.651 62.3911 141.593 62.3892 141.537 62.3855H140.588C136.296 62.3855 132.787 59.0367 132.531 54.8098C132.522 54.7218 132.517 54.6326 132.517 54.5423V54.4704C132.516 54.4182 132.516 54.3659 132.516 54.3135H132.517V40.499C132.517 39.0547 133.688 37.8838 135.133 37.8838ZM130.151 54.856C129.879 59.0674 126.376 62.3989 122.096 62.3989H120.013V62.3963C120.001 62.3965 119.989 62.3966 119.978 62.3966L86.6255 62.3966C85.1812 62.3966 84.0103 61.2257 84.0103 59.7813C84.0103 58.337 85.1812 57.1661 86.6255 57.1661H119.978C120.012 57.1661 120.047 57.1668 120.082 57.1681H122.081C123.651 57.1681 124.938 55.896 124.938 54.3268H124.938V40.5076C124.938 39.0632 126.109 37.8924 127.554 37.8924C128.998 37.8924 130.169 39.0632 130.169 40.5076V54.5509C130.169 54.6541 130.163 54.7559 130.151 54.856ZM86.301 54.9035H119.961L119.97 54.8918C120.014 54.8941 120.059 54.8952 120.104 54.8952C121.549 54.8952 122.72 53.7244 122.72 52.28V40.5184C122.72 39.0741 121.549 37.9032 120.104 37.9032C118.66 37.9032 117.489 39.0741 117.489 40.5184V49.0733C117.468 49.6564 117.049 50.1215 116.478 50.1215H89.2148V40.5184C89.2148 39.0741 88.044 37.9032 86.5996 37.9032C85.1553 37.9032 83.9844 39.0741 83.9844 40.5184V52.28C83.9844 53.6234 84.9972 54.7302 86.301 54.8784V54.9035ZM100.493 42.2812C100.493 42.1536 100.502 42.0282 100.52 41.9055V38.7751C100.52 38.2996 100.905 37.9141 101.381 37.9141C101.856 37.9141 102.242 38.2996 102.242 38.7751V39.8045C102.516 39.7071 102.812 39.6541 103.12 39.6541H105.799C107.25 39.6541 108.426 40.8303 108.426 42.2812C108.426 43.7322 107.25 44.9084 105.799 44.9084H103.12C103.044 44.9084 102.969 44.9052 102.895 44.8989C102.868 44.9015 102.84 44.9028 102.812 44.9028H102.242V44.9052H100.52V44.9028H100.089C99.6134 44.9028 99.228 44.5174 99.228 44.0419C99.228 43.5665 99.6134 43.181 100.089 43.181H100.52V42.657C100.502 42.5343 100.493 42.4088 100.493 42.2812ZM102.413 42.2859C102.413 41.8041 102.803 41.4135 103.285 41.4135H105.818C106.299 41.4135 106.69 41.8041 106.69 42.2859C106.69 42.7677 106.299 43.1582 105.818 43.1582H103.285C102.803 43.1582 102.413 42.7677 102.413 42.2859Z" fill="#FEC803"/>
<path fill-rule="evenodd" clip-rule="evenodd" d="M137.827 14.5444C137.209 13.2388 135.65 12.681 134.344 13.2986C133.691 13.6075 133.225 14.1518 133 14.7822L125.19 31.2883C124.573 32.5939 125.13 34.153 126.436 34.7708C127.742 35.3885 129.301 34.8308 129.918 33.5252L131.4 30.3946H139.405C139.449 30.3946 139.493 30.3935 139.536 30.3913L141.019 33.5267C141.637 34.8323 143.196 35.3901 144.502 34.7725C145.807 34.1549 146.365 32.5958 145.748 31.2901L137.827 14.5444ZM137.064 25.1641H133.874L135.469 21.7931L137.064 25.1641ZM105.205 15.6735C105.205 14.2292 106.376 13.0583 107.821 13.0583H107.843H119.656C121.101 13.0583 122.272 14.2292 122.272 15.6735C122.272 17.1179 121.101 18.2888 119.656 18.2888H110.458V21.4011H116.438C117.882 21.4011 119.053 22.572 119.053 24.0163C119.053 25.4607 117.882 26.6316 116.438 26.6316H110.458V29.7517H119.656C121.101 29.7517 122.272 30.9226 122.272 32.367C122.272 33.8113 121.101 34.9822 119.656 34.9822H107.987C107.939 34.9848 107.891 34.9861 107.843 34.9861C107.681 34.9861 107.522 34.9714 107.368 34.9432C106.14 34.729 105.205 33.6571 105.205 32.367C105.205 32.2519 105.213 32.1386 105.227 32.0274V24.3559C105.213 24.2447 105.205 24.1314 105.205 24.0163C105.205 23.9013 105.213 23.7879 105.227 23.6768V16.0131C105.213 15.9019 105.205 15.7886 105.205 15.6735ZM153.576 15.6735C153.576 14.2292 152.405 13.0583 150.961 13.0583C149.516 13.0583 148.345 14.2292 148.345 15.6735V32.2648C148.344 32.2987 148.343 32.3327 148.343 32.3669C148.343 32.7833 148.441 33.177 148.614 33.5264C149.04 34.3912 149.931 34.9861 150.961 34.9861C151.009 34.9861 151.058 34.9848 151.106 34.9821H162.794C164.239 34.9821 165.41 33.8113 165.41 32.3669C165.41 30.9226 164.239 29.7517 162.794 29.7517H153.576V15.6735ZM89.24 18.2873L92.2176 18.2873V18.2933C93.7381 18.2933 95.1964 18.8973 96.2716 19.9725C97.3468 21.0477 97.9508 22.506 97.9508 24.0265C97.9508 25.5471 97.3468 27.0054 96.2716 28.0805C95.1964 29.1557 93.7381 29.7598 92.2176 29.7598V29.7903H89.24L89.24 18.2873ZM92.544 35.0208C92.7514 35.0208 92.9531 34.9967 93.1466 34.951C95.7141 34.7328 98.1342 33.6152 99.9702 31.7792C102.026 29.7231 103.181 26.9343 103.182 24.0265C103.182 21.1187 102.026 18.33 99.9702 16.2739C97.99 14.2936 95.3302 13.1491 92.539 13.0673C92.4615 13.0604 92.383 13.0569 92.3036 13.0569H86.6279C85.2559 13.0569 84.1306 14.1134 84.0214 15.4573C84.0135 15.5399 84.0095 15.6236 84.0095 15.7083L84.0095 32.0415C83.9929 32.1605 83.9844 32.282 83.9844 32.4056C83.9844 33.8499 85.1553 35.0208 86.5996 35.0208H86.6122L86.6247 35.0208L86.6373 35.0208H92.544Z" fill="white"/>
<defs>
<filter id="filter0_d_11926_118156" x="0.436929" y="0.32404" width="84.8302" height="86.6593" filterUnits="userSpaceOnUse" color-interpolation-filters="sRGB">
<feFlood flood-opacity="0" result="BackgroundImageFix"/>
<feColorMatrix in="SourceAlpha" type="matrix" values="0 0 0 0 0 0 0 0 0 0 0 0 0 0 0 0 0 0 127 0" result="hardAlpha"/>
<feOffset dy="5.88711"/>
<feGaussianBlur stdDeviation="4.28154"/>
<feComposite in2="hardAlpha" operator="out"/>
<feColorMatrix type="matrix" values="0 0 0 0 0 0 0 0 0 0 0 0 0 0 0 0 0 0 0.15 0"/>
<feBlend mode="normal" in2="BackgroundImageFix" result="effect1_dropShadow_11926_118156"/>
<feBlend mode="normal" in="SourceGraphic" in2="effect1_dropShadow_11926_118156" result="shape"/>
</filter>
</defs>
</svg>
