<svg width="386" height="299" viewBox="0 0 386 299" fill="none" xmlns="http://www.w3.org/2000/svg">
<path d="M271.104 265.362C334.231 250.215 373.581 184.794 358.996 119.239C344.41 53.6839 281.412 12.82 218.285 27.9665C155.158 43.1131 115.807 108.535 130.393 174.089C144.979 239.644 207.977 280.508 271.104 265.362Z" fill="#17DC95"/>
<path d="M276.849 103.635L289.486 81.0018" stroke="#2D2D47" stroke-width="2.50926" stroke-linecap="round" stroke-linejoin="round"/>
<path d="M252.15 97.2124L250.023 71.1411" stroke="#2D2D47" stroke-width="2.50926" stroke-linecap="round" stroke-linejoin="round"/>
<path d="M297.364 122.695L318.628 108.668" stroke="#2D2D47" stroke-width="2.50926" stroke-linecap="round" stroke-linejoin="round"/>
<path d="M22.0369 295.722C25.3473 295.973 28.6818 296.199 32.0405 296.35C81.3577 298.683 128.694 289.75 171.68 271.759C171.68 271.759 150.972 253.441 144.859 227.671C138.745 201.901 149.933 167.926 149.933 167.926C115.766 184.989 77.1292 193.771 36.6073 191.864C31.7022 191.638 26.8454 191.262 22.0369 190.71C22.0369 190.71 0 208.45 0 244.96C0 281.47 22.0369 295.722 22.0369 295.722Z" fill="#F9C338"/>
<path d="M265.876 250.924C272.715 250.623 280.447 249.117 288.372 245.429C292.77 243.471 296.298 239.532 297.675 234.363C299.391 227.939 297.095 221.189 292.625 217.024L292.432 216.848C296.491 214.791 300.406 212.181 303.958 208.869C306.229 206.786 307.969 204.001 308.839 200.739C311.231 191.705 306.132 182.396 297.458 179.887C296.467 179.611 295.162 179.234 294.002 179.234C297.53 176.75 299.463 173.287 300.551 169.222C302.677 159.813 300.357 152.611 296.95 147.442C292.649 140.918 285.763 136.677 278.248 135.448C242.22 129.526 210.107 143.151 210.107 143.151L209.189 143.452C216.052 129.501 216.632 109.301 213.176 95.952C212.741 93.5933 211.63 91.4102 210.18 89.3024C205.009 81.7997 195.175 79.9178 188.216 85.0869C183.528 88.5747 181.305 94.6723 181.957 100.393C183.286 123.102 178.164 139.437 162.143 155.547C144.77 169.875 134.525 192.784 136.893 217.4C140.59 255.892 173.621 284.021 210.687 280.182C214.916 279.755 219.024 278.902 222.987 277.723C227.118 279.429 244.613 285.251 261.43 277.146C265.562 275.314 268.897 271.6 270.177 266.732C271.724 260.911 269.767 254.838 265.852 250.924" fill="white"/>
<path d="M238.431 220.786C235.797 222.417 233.671 224.976 232.511 228.188C229.78 235.766 233.477 244.197 240.75 247.032C240.75 247.032 263.464 257.095 288.352 245.527C292.75 243.57 296.278 239.63 297.655 234.461C299.37 228.037 297.268 221.488 292.798 217.323" stroke="#2D2D47" stroke-width="2.65982" stroke-linecap="round" stroke-linejoin="round"/>
<path d="M294.104 179.188C295.263 179.188 296.592 179.54 297.559 179.841C306.258 182.325 311.332 191.659 308.94 200.693C308.07 203.955 306.33 206.74 304.059 208.823C280.5 230.829 241.621 221.896 241.621 221.896C232.922 219.412 227.848 210.077 230.24 201.044C231.956 194.62 237.03 190.229 242.95 189.05" stroke="#2D2D47" stroke-width="2.65982" stroke-linecap="round" stroke-linejoin="round"/>
<path d="M220.279 252.329C217.814 253.885 215.809 256.269 214.697 259.28C212.136 266.406 215.591 274.335 222.454 276.995C222.454 276.995 242.123 286.38 261.429 277.071C265.561 275.239 268.896 271.525 270.176 266.657C271.723 260.836 269.959 254.864 266.02 250.924" stroke="#2D2D47" stroke-width="2.65982" stroke-linecap="round" stroke-linejoin="round"/>
<path d="M214.366 260.792C215.599 256.125 218.861 252.586 222.872 250.93C222.872 250.93 227.656 248.346 233.963 249.099" stroke="#2D2D47" stroke-width="2.65982" stroke-linecap="round" stroke-linejoin="round"/>
<path d="M210.021 143.239C210.021 143.239 242.133 129.613 278.161 135.535C285.676 136.765 292.562 141.005 296.863 147.529C300.27 152.698 302.566 159.875 300.464 169.31C299.376 173.375 297.443 176.838 293.915 179.322C273.014 194.553 243.922 189.183 243.922 189.183C243.1 189.133 242.327 189.033 241.578 188.907C231.792 187.226 224.857 177.44 227.611 167.553C229.593 160.427 235.682 155.684 242.448 155.333C242.448 155.333 258.661 156.262 266.997 153.928" stroke="#2D2D47" stroke-width="2.65982" stroke-linecap="round" stroke-linejoin="round"/>
<path d="M223.032 227.789C225.907 221.515 227.889 214.665 228.783 207.388C231.61 184.077 223.177 161.419 207.084 147.342C215.976 133.516 217.039 110.606 213.246 95.952C212.811 93.5933 211.699 91.4102 210.249 89.3024C205.079 81.7997 195.244 79.9178 188.285 85.0869C183.597 88.5747 181.374 94.6723 182.027 100.393C183.356 123.102 178.233 139.437 162.213 155.547" stroke="#2D2D47" stroke-width="2.65982" stroke-linecap="round" stroke-linejoin="round"/>
<path d="M162.186 155.494C144.812 169.822 134.591 192.732 136.935 217.348C140.632 255.84 173.663 283.969 210.73 280.129C214.958 279.703 219.066 278.85 223.029 277.67" stroke="#2D2D47" stroke-width="2.65982" stroke-linecap="round" stroke-linejoin="round"/>
<path d="M21.7783 191.037C26.5868 191.564 31.4436 191.94 36.3488 192.191C76.8948 194.098 115.508 185.316 149.675 168.253" stroke="#2D2D47" stroke-width="2.65982" stroke-linecap="round" stroke-linejoin="round"/>
<path d="M21.7783 295.917C25.0887 296.168 28.4232 296.393 31.7819 296.544C81.0991 298.878 128.435 289.945 171.421 271.953" stroke="#2D2D47" stroke-width="2.65982" stroke-linecap="round" stroke-linejoin="round"/>
<path d="M97.5791 282.492C98.7939 282.29 100.009 282.089 101.223 281.861" stroke="#2D2D47" stroke-width="2.65982" stroke-linecap="round" stroke-linejoin="round"/>
<path d="M37.2939 286.458C40.701 286.558 44.108 286.609 47.4908 286.609C62.3513 286.609 77.0425 285.58 91.5888 283.497" stroke="#2D2D47" stroke-width="2.65982" stroke-linecap="round" stroke-linejoin="round"/>
<path d="M120.382 181.572C117.072 190.329 115.066 199.814 114.631 209.751C113.399 238.13 125.263 264.001 144.691 280.989" stroke="#2D2D47" stroke-width="2.65982" stroke-linecap="round" stroke-linejoin="round"/>
</svg>
