<svg width="123" height="123" viewBox="0 0 123 123" fill="none" xmlns="http://www.w3.org/2000/svg">
<path d="M107.625 5.125C113.262 5.125 117.875 9.7375 117.875 15.375V107.625C117.875 113.262 113.262 117.875 107.625 117.875H15.375C9.7375 117.875 5.125 113.262 5.125 107.625V15.375C5.125 9.7375 9.7375 5.125 15.375 5.125H107.625ZM107.625 0H15.375C6.8675 0 0 6.8675 0 15.375V107.625C0 116.132 6.8675 123 15.375 123H107.625C116.132 123 123 116.132 123 107.625V15.375C123 6.8675 116.132 0 107.625 0Z" fill="white"/>
<path d="M38.9661 15.3542H36.4067V13.8185C36.4067 13.1019 36.9698 12.5388 37.6864 12.5388C38.4031 12.5388 38.9661 13.1019 38.9661 13.8185V15.3542Z" fill="white"/>
<path d="M41.9461 15.3542H39.3867V13.8185C39.3867 13.1019 39.9498 12.5388 40.6664 12.5388C41.383 12.5388 41.9461 13.1019 41.9461 13.8185V15.3542Z" fill="white"/>
<path d="M44.9305 15.3542H42.3711V13.8185C42.3711 13.1019 42.9342 12.5388 43.6508 12.5388C44.3674 12.5388 44.9305 13.1019 44.9305 13.8185V15.3542Z" fill="white"/>
<path d="M58.5668 15.0982C59.2736 15.0982 59.8465 14.5253 59.8465 13.8185C59.8465 13.1118 59.2736 12.5388 58.5668 12.5388C57.86 12.5388 57.2871 13.1118 57.2871 13.8185C57.2871 14.5253 57.86 15.0982 58.5668 15.0982Z" fill="white"/>
<path d="M62.8226 15.3542H60.2632V13.8185C60.2632 13.1019 60.8263 12.5388 61.5429 12.5388C62.2595 12.5388 62.8226 13.1019 62.8226 13.8185V15.3542Z" fill="white"/>
<path d="M65.8026 15.3542H63.2432V13.8185C63.2432 13.1019 63.8062 12.5388 64.5229 12.5388C65.2395 12.5388 65.8026 13.1019 65.8026 13.8185V15.3542Z" fill="white"/>
<path d="M77.7264 15.3542H75.167V13.8185C75.167 13.1019 75.7301 12.5388 76.4467 12.5388C77.1633 12.5388 77.7264 13.1019 77.7264 13.8185V15.3542Z" fill="white"/>
<path d="M82.4189 15.0982C83.1256 15.0982 83.6986 14.5253 83.6986 13.8185C83.6986 13.1118 83.1256 12.5388 82.4189 12.5388C81.7121 12.5388 81.1392 13.1118 81.1392 13.8185C81.1392 14.5253 81.7121 15.0982 82.4189 15.0982Z" fill="white"/>
<path d="M86.6785 15.3542H84.1191V13.8185C84.1191 13.1019 84.6822 12.5388 85.3988 12.5388C86.1155 12.5388 86.6785 13.1019 86.6785 13.8185V15.3542Z" fill="white"/>
<path d="M38.9661 15.2791H36.4067V18.3503H38.9661V15.2791Z" fill="white"/>
<path d="M41.9461 15.2791H39.3867V18.3503H41.9461V15.2791Z" fill="white"/>
<path d="M44.9305 15.2791H42.3711V18.3503H44.9305V15.2791Z" fill="white"/>
<path d="M50.8944 18.3463H48.335V16.8107C48.335 16.0941 48.898 15.531 49.6147 15.531C50.3313 15.531 50.8944 16.0941 50.8944 16.8107V18.3463Z" fill="white"/>
<path d="M53.8787 18.3463H51.3193V16.8107C51.3193 16.0941 51.8824 15.531 52.599 15.531C53.3157 15.531 53.8787 16.0941 53.8787 16.8107V18.3463Z" fill="white"/>
<path d="M62.8226 15.2791H60.2632V18.3503H62.8226V15.2791Z" fill="white"/>
<path d="M64.5229 18.0944C63.8062 18.0944 63.2432 17.5313 63.2432 16.8147V15.2791H65.8026V16.8147C65.8026 17.5313 65.2395 18.0944 64.5229 18.0944Z" fill="white"/>
<path d="M77.7264 15.2791H75.167V18.3503H77.7264V15.2791Z" fill="white"/>
<path d="M80.7064 18.3463H78.147V16.8107C78.147 16.0941 78.71 15.531 79.4267 15.531C80.1433 15.531 80.7064 16.0941 80.7064 16.8107V18.3463Z" fill="white"/>
<path d="M86.6785 15.2791H84.1191V18.3503H86.6785V15.2791Z" fill="white"/>
<path d="M37.6864 21.0824C36.9698 21.0824 36.4067 20.5194 36.4067 19.8027V18.2671H38.9661V19.8027C38.9661 20.5194 38.4031 21.0824 37.6864 21.0824Z" fill="white"/>
<path d="M41.9461 18.2671H39.3867V21.3384H41.9461V18.2671Z" fill="white"/>
<path d="M44.9305 18.2671H42.3711V21.3384H44.9305V18.2671Z" fill="white"/>
<path d="M50.8944 18.2671H48.335V21.3384H50.8944V18.2671Z" fill="white"/>
<path d="M52.599 21.0824C51.8824 21.0824 51.3193 20.5194 51.3193 19.8027V18.2671H53.8787V19.8027C53.8787 20.5194 53.3157 21.0824 52.599 21.0824Z" fill="white"/>
<path d="M59.8465 21.3263H57.2871V19.7907C57.2871 19.0741 57.8502 18.511 58.5668 18.511C59.2834 18.511 59.8465 19.0741 59.8465 19.7907V21.3263Z" fill="white"/>
<path d="M61.5429 21.0824C60.8263 21.0824 60.2632 20.5194 60.2632 19.8027V18.2671H62.8226V19.8027C62.8226 20.5194 62.2595 21.0824 61.5429 21.0824Z" fill="white"/>
<path d="M68.7742 21.3263H66.2148V19.7907C66.2148 19.0741 66.7779 18.511 67.4945 18.511C68.2112 18.511 68.7742 19.0741 68.7742 19.7907V21.3263Z" fill="white"/>
<path d="M76.4467 21.0824C75.7301 21.0824 75.167 20.5194 75.167 19.8027V18.2671H77.7264V19.8027C77.7264 20.5194 77.1633 21.0824 76.4467 21.0824Z" fill="white"/>
<path d="M80.7064 18.2671H78.147V21.3384H80.7064V18.2671Z" fill="white"/>
<path d="M83.6986 21.3263H81.1392V19.7907C81.1392 19.0741 81.7022 18.511 82.4189 18.511C83.1355 18.511 83.6986 19.0741 83.6986 19.7907V21.3263Z" fill="white"/>
<path d="M86.6785 18.2671H84.1191V21.3384H86.6785V18.2671Z" fill="white"/>
<path d="M40.6664 24.0666C39.9498 24.0666 39.3867 23.5035 39.3867 22.7869V21.2512H41.9461V22.7869C41.9461 23.5035 41.383 24.0666 40.6664 24.0666Z" fill="white"/>
<path d="M43.6508 24.0666C42.9342 24.0666 42.3711 23.5035 42.3711 22.7869V21.2512H44.9305V22.7869C44.9305 23.5035 44.3674 24.0666 43.6508 24.0666Z" fill="white"/>
<path d="M49.6147 24.0666C48.898 24.0666 48.335 23.5035 48.335 22.7869V21.2512H50.8944V22.7869C50.8944 23.5035 50.3313 24.0666 49.6147 24.0666Z" fill="white"/>
<path d="M58.5668 24.0666C57.8502 24.0666 57.2871 23.5035 57.2871 22.7869V21.2512H59.8465V22.7869C59.8465 23.5035 59.2834 24.0666 58.5668 24.0666Z" fill="white"/>
<path d="M64.5229 24.0506C65.2296 24.0506 65.8026 23.4777 65.8026 22.7709C65.8026 22.0642 65.2296 21.4912 64.5229 21.4912C63.8161 21.4912 63.2432 22.0642 63.2432 22.7709C63.2432 23.4777 63.8161 24.0506 64.5229 24.0506Z" fill="white"/>
<path d="M67.4945 24.0666C66.7779 24.0666 66.2148 23.5035 66.2148 22.7869V21.2512H68.7742V22.7869C68.7742 23.5035 68.2112 24.0666 67.4945 24.0666Z" fill="white"/>
<path d="M70.4745 24.0506C71.1813 24.0506 71.7542 23.4777 71.7542 22.7709C71.7542 22.0642 71.1813 21.4912 70.4745 21.4912C69.7678 21.4912 69.1948 22.0642 69.1948 22.7709C69.1948 23.4777 69.7678 24.0506 70.4745 24.0506Z" fill="white"/>
<path d="M79.4267 24.0666C78.71 24.0666 78.147 23.5035 78.147 22.7869V21.2512H80.7064V22.7869C80.7064 23.5035 80.1433 24.0666 79.4267 24.0666Z" fill="white"/>
<path d="M82.4189 24.0666C81.7022 24.0666 81.1392 23.5035 81.1392 22.7869V21.2512H83.6986V22.7869C83.6986 23.5035 83.1355 24.0666 82.4189 24.0666Z" fill="white"/>
<path d="M85.3988 24.0666C84.6822 24.0666 84.1191 23.5035 84.1191 22.7869V21.2512H86.6785V22.7869C86.6785 23.5035 86.1155 24.0666 85.3988 24.0666Z" fill="white"/>
<path d="M61.5429 27.0384C62.2496 27.0384 62.8226 26.4655 62.8226 25.7587C62.8226 25.0519 62.2496 24.479 61.5429 24.479C60.8361 24.479 60.2632 25.0519 60.2632 25.7587C60.2632 26.4655 60.8361 27.0384 61.5429 27.0384Z" fill="white"/>
<path d="M38.9661 30.2829H36.4067V28.7472C36.4067 28.0306 36.9698 27.4675 37.6864 27.4675C38.4031 27.4675 38.9661 28.0306 38.9661 28.7472V30.2829Z" fill="white"/>
<path d="M40.6664 30.0269C41.3732 30.0269 41.9461 29.454 41.9461 28.7472C41.9461 28.0405 41.3732 27.4675 40.6664 27.4675C39.9597 27.4675 39.3867 28.0405 39.3867 28.7472C39.3867 29.454 39.9597 30.0269 40.6664 30.0269Z" fill="white"/>
<path d="M44.9305 30.2829H42.3711V28.7472C42.3711 28.0306 42.9342 27.4675 43.6508 27.4675C44.3674 27.4675 44.9305 28.0306 44.9305 28.7472V30.2829Z" fill="white"/>
<path d="M46.643 30.0269C47.3497 30.0269 47.9227 29.454 47.9227 28.7472C47.9227 28.0405 47.3497 27.4675 46.643 27.4675C45.9362 27.4675 45.3633 28.0405 45.3633 28.7472C45.3633 29.454 45.9362 30.0269 46.643 30.0269Z" fill="white"/>
<path d="M52.599 30.0269C53.3058 30.0269 53.8787 29.454 53.8787 28.7472C53.8787 28.0405 53.3058 27.4675 52.599 27.4675C51.8923 27.4675 51.3193 28.0405 51.3193 28.7472C51.3193 29.454 51.8923 30.0269 52.599 30.0269Z" fill="white"/>
<path d="M58.5668 30.0269C59.2736 30.0269 59.8465 29.454 59.8465 28.7472C59.8465 28.0405 59.2736 27.4675 58.5668 27.4675C57.86 27.4675 57.2871 28.0405 57.2871 28.7472C57.2871 29.454 57.86 30.0269 58.5668 30.0269Z" fill="white"/>
<path d="M64.5229 30.0269C65.2296 30.0269 65.8026 29.454 65.8026 28.7472C65.8026 28.0405 65.2296 27.4675 64.5229 27.4675C63.8161 27.4675 63.2432 28.0405 63.2432 28.7472C63.2432 29.454 63.8161 30.0269 64.5229 30.0269Z" fill="white"/>
<path d="M80.7064 30.2829H78.147V28.7472C78.147 28.0306 78.71 27.4675 79.4267 27.4675C80.1433 27.4675 80.7064 28.0306 80.7064 28.7472V30.2829Z" fill="white"/>
<path d="M82.4189 30.0269C83.1256 30.0269 83.6986 29.454 83.6986 28.7472C83.6986 28.0405 83.1256 27.4675 82.4189 27.4675C81.7121 27.4675 81.1392 28.0405 81.1392 28.7472C81.1392 29.454 81.7121 30.0269 82.4189 30.0269Z" fill="white"/>
<path d="M86.6785 30.2829H84.1191V28.7472C84.1191 28.0306 84.6822 27.4675 85.3988 27.4675C86.1155 27.4675 86.6785 28.0306 86.6785 28.7472V30.2829Z" fill="white"/>
<path d="M38.9661 30.1787H36.4067V33.25H38.9661V30.1787Z" fill="white"/>
<path d="M43.6508 32.994C42.9342 32.994 42.3711 32.431 42.3711 31.7143V30.1787H44.9305V31.7143C44.9305 32.431 44.3674 32.994 43.6508 32.994Z" fill="white"/>
<path d="M49.6147 32.9942C50.3214 32.9942 50.8944 32.4213 50.8944 31.7145C50.8944 31.0078 50.3214 30.4348 49.6147 30.4348C48.9079 30.4348 48.335 31.0078 48.335 31.7145C48.335 32.4213 48.9079 32.9942 49.6147 32.9942Z" fill="white"/>
<path d="M56.8665 33.2501H54.3071V31.7145C54.3071 30.9979 54.8702 30.4348 55.5868 30.4348C56.3035 30.4348 56.8665 30.9979 56.8665 31.7145V33.2501Z" fill="white"/>
<path d="M61.5429 32.9942C62.2496 32.9942 62.8226 32.4213 62.8226 31.7145C62.8226 31.0078 62.2496 30.4348 61.5429 30.4348C60.8361 30.4348 60.2632 31.0078 60.2632 31.7145C60.2632 32.4213 60.8361 32.9942 61.5429 32.9942Z" fill="white"/>
<path d="M68.7742 33.2501H66.2148V31.7145C66.2148 30.9979 66.7779 30.4348 67.4945 30.4348C68.2112 30.4348 68.7742 30.9979 68.7742 31.7145V33.2501Z" fill="white"/>
<path d="M74.7464 33.2501H72.187V31.7145C72.187 30.9979 72.7501 30.4348 73.4667 30.4348C74.1833 30.4348 74.7464 30.9979 74.7464 31.7145V33.2501Z" fill="white"/>
<path d="M80.7064 30.1787H78.147V33.25H80.7064V30.1787Z" fill="white"/>
<path d="M85.3988 32.994C84.6822 32.994 84.1191 32.431 84.1191 31.7143V30.1787H86.6785V31.7143C86.6785 32.431 86.1155 32.994 85.3988 32.994Z" fill="white"/>
<path d="M38.9661 33.1667H36.4067V36.238H38.9661V33.1667Z" fill="white"/>
<path d="M55.5868 35.9821C54.8702 35.9821 54.3071 35.419 54.3071 34.7024V33.1667H56.8665V34.7024C56.8665 35.419 56.3035 35.9821 55.5868 35.9821Z" fill="white"/>
<path d="M58.5668 35.9744C59.2736 35.9744 59.8465 35.4015 59.8465 34.6947C59.8465 33.988 59.2736 33.415 58.5668 33.415C57.86 33.415 57.2871 33.988 57.2871 34.6947C57.2871 35.4015 57.86 35.9744 58.5668 35.9744Z" fill="white"/>
<path d="M67.4945 35.9821C66.7779 35.9821 66.2148 35.419 66.2148 34.7024V33.1667H68.7742V34.7024C68.7742 35.419 68.2112 35.9821 67.4945 35.9821Z" fill="white"/>
<path d="M70.4745 35.9744C71.1813 35.9744 71.7542 35.4015 71.7542 34.6947C71.7542 33.988 71.1813 33.415 70.4745 33.415C69.7678 33.415 69.1948 33.988 69.1948 34.6947C69.1948 35.4015 69.7678 35.9744 70.4745 35.9744Z" fill="white"/>
<path d="M74.7464 33.1667H72.187V36.238H74.7464V33.1667Z" fill="white"/>
<path d="M76.4467 35.9744C77.1534 35.9744 77.7264 35.4015 77.7264 34.6947C77.7264 33.988 77.1534 33.415 76.4467 33.415C75.7399 33.415 75.167 33.988 75.167 34.6947C75.167 35.4015 75.7399 35.9744 76.4467 35.9744Z" fill="white"/>
<path d="M79.4267 35.9821C78.71 35.9821 78.147 35.419 78.147 34.7024V33.1667H80.7064V34.7024C80.7064 35.419 80.1433 35.9821 79.4267 35.9821Z" fill="white"/>
<path d="M83.6986 36.2304H81.1392V34.6947C81.1392 33.9781 81.7022 33.415 82.4189 33.415C83.1355 33.415 83.6986 33.9781 83.6986 34.6947V36.2304Z" fill="white"/>
<path d="M19.7987 38.9664C20.5055 38.9664 21.0784 38.3934 21.0784 37.6867C21.0784 36.9799 20.5055 36.407 19.7987 36.407C19.092 36.407 18.519 36.9799 18.519 37.6867C18.519 38.3934 19.092 38.9664 19.7987 38.9664Z" fill="white"/>
<path d="M24.0501 39.2223H21.4907V37.6867C21.4907 36.97 22.0538 36.407 22.7704 36.407C23.4871 36.407 24.0501 36.97 24.0501 37.6867V39.2223Z" fill="white"/>
<path d="M25.7421 38.9664C26.4489 38.9664 27.0218 38.3934 27.0218 37.6867C27.0218 36.9799 26.4489 36.407 25.7421 36.407C25.0353 36.407 24.4624 36.9799 24.4624 37.6867C24.4624 38.3934 25.0353 38.9664 25.7421 38.9664Z" fill="white"/>
<path d="M31.7143 38.9664C32.421 38.9664 32.994 38.3934 32.994 37.6867C32.994 36.9799 32.421 36.407 31.7143 36.407C31.0075 36.407 30.4346 36.9799 30.4346 37.6867C30.4346 38.3934 31.0075 38.9664 31.7143 38.9664Z" fill="white"/>
<path d="M37.6864 38.9706C36.9698 38.9706 36.4067 38.4075 36.4067 37.6909V36.1553H38.9661V37.6909C38.9661 38.4075 38.4031 38.9706 37.6864 38.9706Z" fill="white"/>
<path d="M44.9305 39.2223H42.3711V37.6867C42.3711 36.97 42.9342 36.407 43.6508 36.407C44.3674 36.407 44.9305 36.97 44.9305 37.6867V39.2223Z" fill="white"/>
<path d="M47.9227 39.2223H45.3633V37.6867C45.3633 36.97 45.9263 36.407 46.643 36.407C47.3596 36.407 47.9227 36.97 47.9227 37.6867V39.2223Z" fill="white"/>
<path d="M50.8944 39.2223H48.335V37.6867C48.335 36.97 48.898 36.407 49.6147 36.407C50.3313 36.407 50.8944 36.97 50.8944 37.6867V39.2223Z" fill="white"/>
<path d="M52.599 38.9664C53.3058 38.9664 53.8787 38.3934 53.8787 37.6867C53.8787 36.9799 53.3058 36.407 52.599 36.407C51.8923 36.407 51.3193 36.9799 51.3193 37.6867C51.3193 38.3934 51.8923 38.9664 52.599 38.9664Z" fill="white"/>
<path d="M61.5429 38.9664C62.2496 38.9664 62.8226 38.3934 62.8226 37.6867C62.8226 36.9799 62.2496 36.407 61.5429 36.407C60.8361 36.407 60.2632 36.9799 60.2632 37.6867C60.2632 38.3934 60.8361 38.9664 61.5429 38.9664Z" fill="white"/>
<path d="M65.8026 39.2223H63.2432V37.6867C63.2432 36.97 63.8062 36.407 64.5229 36.407C65.2395 36.407 65.8026 36.97 65.8026 37.6867V39.2223Z" fill="white"/>
<path d="M73.4667 38.9706C72.7501 38.9706 72.187 38.4075 72.187 37.6909V36.1553H74.7464V37.6909C74.7464 38.4075 74.1833 38.9706 73.4667 38.9706Z" fill="white"/>
<path d="M83.6986 36.1553H81.1392V39.2265H83.6986V36.1553Z" fill="white"/>
<path d="M85.3988 38.9664C86.1056 38.9664 86.6785 38.3934 86.6785 37.6867C86.6785 36.9799 86.1056 36.407 85.3988 36.407C84.6921 36.407 84.1191 36.9799 84.1191 37.6867C84.1191 38.3934 84.6921 38.9664 85.3988 38.9664Z" fill="white"/>
<path d="M89.6502 39.2223H87.0908V37.6867C87.0908 36.97 87.6539 36.407 88.3705 36.407C89.0871 36.407 89.6502 36.97 89.6502 37.6867V39.2223Z" fill="white"/>
<path d="M92.6463 39.2223H90.0869V37.6867C90.0869 36.97 90.65 36.407 91.3666 36.407C92.0832 36.407 92.6463 36.97 92.6463 37.6867V39.2223Z" fill="white"/>
<path d="M94.3427 38.9664C95.0494 38.9664 95.6224 38.3934 95.6224 37.6867C95.6224 36.9799 95.0494 36.407 94.3427 36.407C93.6359 36.407 93.063 36.9799 93.063 37.6867C93.063 38.3934 93.6359 38.9664 94.3427 38.9664Z" fill="white"/>
<path d="M104.575 39.2223H102.015V37.6867C102.015 36.97 102.578 36.407 103.295 36.407C104.011 36.407 104.575 36.97 104.575 37.6867V39.2223Z" fill="white"/>
<path d="M106.25 38.9664C106.957 38.9664 107.53 38.3934 107.53 37.6867C107.53 36.9799 106.957 36.407 106.25 36.407C105.543 36.407 104.97 36.9799 104.97 37.6867C104.97 38.3934 105.543 38.9664 106.25 38.9664Z" fill="white"/>
<path d="M110.526 39.2223H107.967V37.6867C107.967 36.97 108.53 36.407 109.246 36.407C109.963 36.407 110.526 36.97 110.526 37.6867V39.2223Z" fill="white"/>
<path d="M24.0501 39.1431H21.4907V42.2143H24.0501V39.1431Z" fill="white"/>
<path d="M28.747 41.9466C29.4537 41.9466 30.0267 41.3737 30.0267 40.6669C30.0267 39.9601 29.4537 39.3872 28.747 39.3872C28.0402 39.3872 27.4673 39.9601 27.4673 40.6669C27.4673 41.3737 28.0402 41.9466 28.747 41.9466Z" fill="white"/>
<path d="M44.9305 39.1431H42.3711V42.2143H44.9305V39.1431Z" fill="white"/>
<path d="M46.643 41.9584C45.9263 41.9584 45.3633 41.3953 45.3633 40.6787V39.1431H47.9227V40.6787C47.9227 41.3953 47.3596 41.9584 46.643 41.9584Z" fill="white"/>
<path d="M50.8944 39.1431H48.335V42.2143H50.8944V39.1431Z" fill="white"/>
<path d="M56.8665 42.2025H54.3071V40.6669C54.3071 39.9503 54.8702 39.3872 55.5868 39.3872C56.3035 39.3872 56.8665 39.9503 56.8665 40.6669V42.2025Z" fill="white"/>
<path d="M59.8465 42.2025H57.2871V40.6669C57.2871 39.9503 57.8502 39.3872 58.5668 39.3872C59.2834 39.3872 59.8465 39.9503 59.8465 40.6669V42.2025Z" fill="white"/>
<path d="M64.5229 41.9584C63.8062 41.9584 63.2432 41.3953 63.2432 40.6787V39.1431H65.8026V40.6787C65.8026 41.3953 65.2395 41.9584 64.5229 41.9584Z" fill="white"/>
<path d="M71.7542 42.2025H69.1948V40.6669C69.1948 39.9503 69.7579 39.3872 70.4745 39.3872C71.1912 39.3872 71.7542 39.9503 71.7542 40.6669V42.2025Z" fill="white"/>
<path d="M77.7264 42.2025H75.167V40.6669C75.167 39.9503 75.7301 39.3872 76.4467 39.3872C77.1633 39.3872 77.7264 39.9503 77.7264 40.6669V42.2025Z" fill="white"/>
<path d="M82.4189 41.9584C81.7022 41.9584 81.1392 41.3953 81.1392 40.6787V39.1431H83.6986V40.6787C83.6986 41.3953 83.1355 41.9584 82.4189 41.9584Z" fill="white"/>
<path d="M88.3705 41.9584C87.6539 41.9584 87.0908 41.3953 87.0908 40.6787V39.1431H89.6502V40.6787C89.6502 41.3953 89.0871 41.9584 88.3705 41.9584Z" fill="white"/>
<path d="M91.3666 41.9584C90.65 41.9584 90.0869 41.3953 90.0869 40.6787V39.1431H92.6463V40.6787C92.6463 41.3953 92.0832 41.9584 91.3666 41.9584Z" fill="white"/>
<path d="M103.295 41.9584C102.578 41.9584 102.015 41.3953 102.015 40.6787V39.1431H104.575V40.6787C104.575 41.3953 104.011 41.9584 103.295 41.9584Z" fill="white"/>
<path d="M109.246 41.9584C108.53 41.9584 107.967 41.3953 107.967 40.6787V39.1431H110.526V40.6787C110.526 41.3953 109.963 41.9584 109.246 41.9584Z" fill="white"/>
<path d="M21.0784 45.1867H18.519V43.651C18.519 42.9344 19.0821 42.3713 19.7987 42.3713C20.5154 42.3713 21.0784 42.9344 21.0784 43.651V45.1867Z" fill="white"/>
<path d="M24.0501 42.1025H21.4907V45.1738H24.0501V42.1025Z" fill="white"/>
<path d="M31.7143 44.9307C32.421 44.9307 32.994 44.3578 32.994 43.651C32.994 42.9443 32.421 42.3713 31.7143 42.3713C31.0075 42.3713 30.4346 42.9443 30.4346 43.651C30.4346 44.3578 31.0075 44.9307 31.7143 44.9307Z" fill="white"/>
<path d="M38.9661 45.1867H36.4067V43.651C36.4067 42.9344 36.9698 42.3713 37.6864 42.3713C38.4031 42.3713 38.9661 42.9344 38.9661 43.651V45.1867Z" fill="white"/>
<path d="M43.6508 44.9179C42.9342 44.9179 42.3711 44.3548 42.3711 43.6382V42.1025H44.9305V43.6382C44.9305 44.3548 44.3674 44.9179 43.6508 44.9179Z" fill="white"/>
<path d="M50.8944 42.1025H48.335V45.1738H50.8944V42.1025Z" fill="white"/>
<path d="M55.5868 44.9179C54.8702 44.9179 54.3071 44.3548 54.3071 43.6382V42.1025H56.8665V43.6382C56.8665 44.3548 56.3035 44.9179 55.5868 44.9179Z" fill="white"/>
<path d="M59.8465 42.1025H57.2871V45.1738H59.8465V42.1025Z" fill="white"/>
<path d="M62.8226 45.1867H60.2632V43.651C60.2632 42.9344 60.8263 42.3713 61.5429 42.3713C62.2595 42.3713 62.8226 42.9344 62.8226 43.651V45.1867Z" fill="white"/>
<path d="M68.7742 45.1867H66.2148V43.651C66.2148 42.9344 66.7779 42.3713 67.4945 42.3713C68.2112 42.3713 68.7742 42.9344 68.7742 43.651V45.1867Z" fill="white"/>
<path d="M71.7542 42.1025H69.1948V45.1738H71.7542V42.1025Z" fill="white"/>
<path d="M77.7264 42.1025H75.167V45.1738H77.7264V42.1025Z" fill="white"/>
<path d="M94.3427 44.9307C95.0494 44.9307 95.6224 44.3578 95.6224 43.651C95.6224 42.9443 95.0494 42.3713 94.3427 42.3713C93.6359 42.3713 93.063 42.9443 93.063 43.651C93.063 44.3578 93.6359 44.9307 94.3427 44.9307Z" fill="white"/>
<path d="M101.582 45.1867H99.0229V43.651C99.0229 42.9344 99.586 42.3713 100.303 42.3713C101.019 42.3713 101.582 42.9344 101.582 43.651V45.1867Z" fill="white"/>
<path d="M107.53 45.1867H104.97V43.651C104.97 42.9344 105.533 42.3713 106.25 42.3713C106.967 42.3713 107.53 42.9344 107.53 43.651V45.1867Z" fill="white"/>
<path d="M15.1229 48.1789H12.5635V46.6432C12.5635 45.9266 13.1265 45.3635 13.8432 45.3635C14.5598 45.3635 15.1229 45.9266 15.1229 46.6432V48.1789Z" fill="white"/>
<path d="M19.7987 47.8981C19.0821 47.8981 18.519 47.335 18.519 46.6184V45.0828H21.0784V46.6184C21.0784 47.335 20.5154 47.8981 19.7987 47.8981Z" fill="white"/>
<path d="M22.7704 47.8981C22.0538 47.8981 21.4907 47.335 21.4907 46.6184V45.0828H24.0501V46.6184C24.0501 47.335 23.4871 47.8981 22.7704 47.8981Z" fill="white"/>
<path d="M27.0218 48.1789H24.4624V46.6432C24.4624 45.9266 25.0255 45.3635 25.7421 45.3635C26.4587 45.3635 27.0218 45.9266 27.0218 46.6432V48.1789Z" fill="white"/>
<path d="M30.0267 48.1789H27.4673V46.6432C27.4673 45.9266 28.0304 45.3635 28.747 45.3635C29.4636 45.3635 30.0267 45.9266 30.0267 46.6432V48.1789Z" fill="white"/>
<path d="M35.9739 48.1789H33.4146V46.6432C33.4146 45.9266 33.9776 45.3635 34.6942 45.3635C35.4109 45.3635 35.9739 45.9266 35.9739 46.6432V48.1789Z" fill="white"/>
<path d="M37.6864 47.8981C36.9698 47.8981 36.4067 47.335 36.4067 46.6184V45.0828H38.9661V46.6184C38.9661 47.335 38.4031 47.8981 37.6864 47.8981Z" fill="white"/>
<path d="M46.643 47.9229C47.3497 47.9229 47.9227 47.35 47.9227 46.6432C47.9227 45.9365 47.3497 45.3635 46.643 45.3635C45.9362 45.3635 45.3633 45.9365 45.3633 46.6432C45.3633 47.35 45.9362 47.9229 46.643 47.9229Z" fill="white"/>
<path d="M49.6147 47.8981C48.898 47.8981 48.335 47.335 48.335 46.6184V45.0828H50.8944V46.6184C50.8944 47.335 50.3313 47.8981 49.6147 47.8981Z" fill="white"/>
<path d="M58.5668 47.8981C57.8502 47.8981 57.2871 47.335 57.2871 46.6184V45.0828H59.8465V46.6184C59.8465 47.335 59.2834 47.8981 58.5668 47.8981Z" fill="white"/>
<path d="M62.8226 45.0828H60.2632V48.154H62.8226V45.0828Z" fill="white"/>
<path d="M68.7742 45.0828H66.2148V48.154H68.7742V45.0828Z" fill="white"/>
<path d="M70.4745 47.8981C69.7579 47.8981 69.1948 47.335 69.1948 46.6184V45.0828H71.7542V46.6184C71.7542 47.335 71.1912 47.8981 70.4745 47.8981Z" fill="white"/>
<path d="M74.7464 48.1789H72.187V46.6432C72.187 45.9266 72.7501 45.3635 73.4667 45.3635C74.1833 45.3635 74.7464 45.9266 74.7464 46.6432V48.1789Z" fill="white"/>
<path d="M77.7264 45.0828H75.167V48.154H77.7264V45.0828Z" fill="white"/>
<path d="M79.4267 47.9229C80.1334 47.9229 80.7064 47.35 80.7064 46.6432C80.7064 45.9365 80.1334 45.3635 79.4267 45.3635C78.7199 45.3635 78.147 45.9365 78.147 46.6432C78.147 47.35 78.7199 47.9229 79.4267 47.9229Z" fill="white"/>
<path d="M86.6785 48.1789H84.1191V46.6432C84.1191 45.9266 84.6822 45.3635 85.3988 45.3635C86.1155 45.3635 86.6785 45.9266 86.6785 46.6432V48.1789Z" fill="white"/>
<path d="M100.303 47.8981C99.586 47.8981 99.0229 47.335 99.0229 46.6184V45.0828H101.582V46.6184C101.582 47.335 101.019 47.8981 100.303 47.8981Z" fill="white"/>
<path d="M103.295 47.9229C104.002 47.9229 104.575 47.35 104.575 46.6432C104.575 45.9365 104.002 45.3635 103.295 45.3635C102.588 45.3635 102.015 45.9365 102.015 46.6432C102.015 47.35 102.588 47.9229 103.295 47.9229Z" fill="white"/>
<path d="M106.25 47.8981C105.533 47.8981 104.97 47.335 104.97 46.6184V45.0828H107.53V46.6184C107.53 47.335 106.967 47.8981 106.25 47.8981Z" fill="white"/>
<path d="M109.246 47.9229C109.953 47.9229 110.526 47.35 110.526 46.6432C110.526 45.9365 109.953 45.3635 109.246 45.3635C108.54 45.3635 107.967 45.9365 107.967 46.6432C107.967 47.35 108.54 47.9229 109.246 47.9229Z" fill="white"/>
<path d="M13.8432 50.89C13.1265 50.89 12.5635 50.327 12.5635 49.6103V48.0747H15.1229V49.6103C15.1229 50.327 14.5598 50.89 13.8432 50.89Z" fill="white"/>
<path d="M27.0218 48.0747H24.4624V51.146H27.0218V48.0747Z" fill="white"/>
<path d="M30.0267 48.0747H27.4673V51.146H30.0267V48.0747Z" fill="white"/>
<path d="M31.7143 50.8741C32.421 50.8741 32.994 50.3012 32.994 49.5944C32.994 48.8876 32.421 48.3147 31.7143 48.3147C31.0075 48.3147 30.4346 48.8876 30.4346 49.5944C30.4346 50.3012 31.0075 50.8741 31.7143 50.8741Z" fill="white"/>
<path d="M35.9739 48.0747H33.4146V51.146H35.9739V48.0747Z" fill="white"/>
<path d="M40.6664 50.8741C41.3732 50.8741 41.9461 50.3012 41.9461 49.5944C41.9461 48.8876 41.3732 48.3147 40.6664 48.3147C39.9597 48.3147 39.3867 48.8876 39.3867 49.5944C39.3867 50.3012 39.9597 50.8741 40.6664 50.8741Z" fill="white"/>
<path d="M44.9305 51.13H42.3711V49.5944C42.3711 48.8778 42.9342 48.3147 43.6508 48.3147C44.3674 48.3147 44.9305 48.8778 44.9305 49.5944V51.13Z" fill="white"/>
<path d="M61.5429 50.89C60.8263 50.89 60.2632 50.327 60.2632 49.6103V48.0747H62.8226V49.6103C62.8226 50.327 62.2595 50.89 61.5429 50.89Z" fill="white"/>
<path d="M65.8026 51.13H63.2432V49.5944C63.2432 48.8778 63.8062 48.3147 64.5229 48.3147C65.2395 48.3147 65.8026 48.8778 65.8026 49.5944V51.13Z" fill="white"/>
<path d="M67.4945 50.89C66.7779 50.89 66.2148 50.327 66.2148 49.6103V48.0747H68.7742V49.6103C68.7742 50.327 68.2112 50.89 67.4945 50.89Z" fill="white"/>
<path d="M73.4667 50.89C72.7501 50.89 72.187 50.327 72.187 49.6103V48.0747H74.7464V49.6103C74.7464 50.327 74.1833 50.89 73.4667 50.89Z" fill="white"/>
<path d="M76.4467 50.89C75.7301 50.89 75.167 50.327 75.167 49.6103V48.0747H77.7264V49.6103C77.7264 50.327 77.1633 50.89 76.4467 50.89Z" fill="white"/>
<path d="M83.6986 51.13H81.1392V49.5944C81.1392 48.8778 81.7022 48.3147 82.4189 48.3147C83.1355 48.3147 83.6986 48.8778 83.6986 49.5944V51.13Z" fill="white"/>
<path d="M85.3988 50.89C84.6822 50.89 84.1191 50.327 84.1191 49.6103V48.0747H86.6785V49.6103C86.6785 50.327 86.1155 50.89 85.3988 50.89Z" fill="white"/>
<path d="M18.0902 54.1264H15.5308V52.5907C15.5308 51.8741 16.0938 51.311 16.8105 51.311C17.5271 51.311 18.0902 51.8741 18.0902 52.5907V54.1264Z" fill="white"/>
<path d="M21.0784 54.1264H18.519V52.5907C18.519 51.8741 19.0821 51.311 19.7987 51.311C20.5154 51.311 21.0784 51.8741 21.0784 52.5907V54.1264Z" fill="white"/>
<path d="M27.0218 51.0591H24.4624V54.1304H27.0218V51.0591Z" fill="white"/>
<path d="M30.0267 51.0591H27.4673V54.1304H30.0267V51.0591Z" fill="white"/>
<path d="M34.6942 53.8744C33.9776 53.8744 33.4146 53.3113 33.4146 52.5947V51.0591H35.9739V52.5947C35.9739 53.3113 35.4109 53.8744 34.6942 53.8744Z" fill="white"/>
<path d="M44.9305 51.0591H42.3711V54.1304H44.9305V51.0591Z" fill="white"/>
<path d="M59.8465 54.1264H57.2871V52.5907C57.2871 51.8741 57.8502 51.311 58.5668 51.311C59.2834 51.311 59.8465 51.8741 59.8465 52.5907V54.1264Z" fill="white"/>
<path d="M64.5229 53.8744C63.8062 53.8744 63.2432 53.3113 63.2432 52.5947V51.0591H65.8026V52.5947C65.8026 53.3113 65.2395 53.8744 64.5229 53.8744Z" fill="white"/>
<path d="M70.4745 53.8704C71.1813 53.8704 71.7542 53.2975 71.7542 52.5907C71.7542 51.884 71.1813 51.311 70.4745 51.311C69.7678 51.311 69.1948 51.884 69.1948 52.5907C69.1948 53.2975 69.7678 53.8704 70.4745 53.8704Z" fill="white"/>
<path d="M80.7064 54.1264H78.147V52.5907C78.147 51.8741 78.71 51.311 79.4267 51.311C80.1433 51.311 80.7064 51.8741 80.7064 52.5907V54.1264Z" fill="white"/>
<path d="M82.4189 53.8744C81.7022 53.8744 81.1392 53.3113 81.1392 52.5947V51.0591H83.6986V52.5947C83.6986 53.3113 83.1355 53.8744 82.4189 53.8744Z" fill="white"/>
<path d="M91.3666 53.8704C92.0734 53.8704 92.6463 53.2975 92.6463 52.5907C92.6463 51.884 92.0734 51.311 91.3666 51.311C90.6599 51.311 90.0869 51.884 90.0869 52.5907C90.0869 53.2975 90.6599 53.8704 91.3666 53.8704Z" fill="white"/>
<path d="M94.3427 53.8704C95.0494 53.8704 95.6224 53.2975 95.6224 52.5907C95.6224 51.884 95.0494 51.311 94.3427 51.311C93.6359 51.311 93.063 51.884 93.063 52.5907C93.063 53.2975 93.6359 53.8704 94.3427 53.8704Z" fill="white"/>
<path d="M104.575 54.1264H102.015V52.5907C102.015 51.8741 102.578 51.311 103.295 51.311C104.011 51.311 104.575 51.8741 104.575 52.5907V54.1264Z" fill="white"/>
<path d="M109.246 53.8704C109.953 53.8704 110.526 53.2975 110.526 52.5907C110.526 51.884 109.953 51.311 109.246 51.311C108.54 51.311 107.967 51.884 107.967 52.5907C107.967 53.2975 108.54 53.8704 109.246 53.8704Z" fill="white"/>
<path d="M18.0902 54.0471H15.5308V57.1184H18.0902V54.0471Z" fill="white"/>
<path d="M19.7987 56.8625C19.0821 56.8625 18.519 56.2994 18.519 55.5828V54.0471H21.0784V55.5828C21.0784 56.2994 20.5154 56.8625 19.7987 56.8625Z" fill="white"/>
<path d="M25.7421 56.8625C25.0255 56.8625 24.4624 56.2994 24.4624 55.5828V54.0471H27.0218V55.5828C27.0218 56.2994 26.4587 56.8625 25.7421 56.8625Z" fill="white"/>
<path d="M28.747 56.8625C28.0304 56.8625 27.4673 56.2994 27.4673 55.5828V54.0471H30.0267V55.5828C30.0267 56.2994 29.4636 56.8625 28.747 56.8625Z" fill="white"/>
<path d="M31.7143 56.8504C32.421 56.8504 32.994 56.2775 32.994 55.5707C32.994 54.864 32.421 54.291 31.7143 54.291C31.0075 54.291 30.4346 54.864 30.4346 55.5707C30.4346 56.2775 31.0075 56.8504 31.7143 56.8504Z" fill="white"/>
<path d="M37.6864 56.8504C38.3932 56.8504 38.9661 56.2775 38.9661 55.5707C38.9661 54.864 38.3932 54.291 37.6864 54.291C36.9797 54.291 36.4067 54.864 36.4067 55.5707C36.4067 56.2775 36.9797 56.8504 37.6864 56.8504Z" fill="white"/>
<path d="M44.9305 54.0471H42.3711V57.1184H44.9305V54.0471Z" fill="white"/>
<path d="M58.5668 56.8625C57.8502 56.8625 57.2871 56.2994 57.2871 55.5828V54.0471H59.8465V55.5828C59.8465 56.2994 59.2834 56.8625 58.5668 56.8625Z" fill="white"/>
<path d="M62.8226 57.1063H60.2632V55.5707C60.2632 54.8541 60.8263 54.291 61.5429 54.291C62.2595 54.291 62.8226 54.8541 62.8226 55.5707V57.1063Z" fill="white"/>
<path d="M68.7742 57.1063H66.2148V55.5707C66.2148 54.8541 66.7779 54.291 67.4945 54.291C68.2112 54.291 68.7742 54.8541 68.7742 55.5707V57.1063Z" fill="white"/>
<path d="M74.7464 57.1063H72.187V55.5707C72.187 54.8541 72.7501 54.291 73.4667 54.291C74.1833 54.291 74.7464 54.8541 74.7464 55.5707V57.1063Z" fill="white"/>
<path d="M80.7064 54.0471H78.147V57.1184H80.7064V54.0471Z" fill="white"/>
<path d="M85.3988 56.8504C86.1056 56.8504 86.6785 56.2775 86.6785 55.5707C86.6785 54.864 86.1056 54.291 85.3988 54.291C84.6921 54.291 84.1191 54.864 84.1191 55.5707C84.1191 56.2775 84.6921 56.8504 85.3988 56.8504Z" fill="white"/>
<path d="M88.3705 56.8504C89.0773 56.8504 89.6502 56.2775 89.6502 55.5707C89.6502 54.864 89.0773 54.291 88.3705 54.291C87.6638 54.291 87.0908 54.864 87.0908 55.5707C87.0908 56.2775 87.6638 56.8504 88.3705 56.8504Z" fill="white"/>
<path d="M100.303 56.8504C101.009 56.8504 101.582 56.2775 101.582 55.5707C101.582 54.864 101.009 54.291 100.303 54.291C99.5959 54.291 99.0229 54.864 99.0229 55.5707C99.0229 56.2775 99.5959 56.8504 100.303 56.8504Z" fill="white"/>
<path d="M104.575 54.0471H102.015V57.1184H104.575V54.0471Z" fill="white"/>
<path d="M107.53 57.1063H104.97V55.5707C104.97 54.8541 105.533 54.291 106.25 54.291C106.967 54.291 107.53 54.8541 107.53 55.5707V57.1063Z" fill="white"/>
<path d="M16.8105 59.8466C16.0938 59.8466 15.5308 59.2835 15.5308 58.5669V57.0312H18.0902V58.5669C18.0902 59.2835 17.5271 59.8466 16.8105 59.8466Z" fill="white"/>
<path d="M35.9739 60.1027H33.4146V58.5671C33.4146 57.8504 33.9776 57.2874 34.6942 57.2874C35.4109 57.2874 35.9739 57.8504 35.9739 58.5671V60.1027Z" fill="white"/>
<path d="M43.6508 59.8466C42.9342 59.8466 42.3711 59.2835 42.3711 58.5669V57.0312H44.9305V58.5669C44.9305 59.2835 44.3674 59.8466 43.6508 59.8466Z" fill="white"/>
<path d="M49.6147 59.8467C50.3214 59.8467 50.8944 59.2738 50.8944 58.5671C50.8944 57.8603 50.3214 57.2874 49.6147 57.2874C48.9079 57.2874 48.335 57.8603 48.335 58.5671C48.335 59.2738 48.9079 59.8467 49.6147 59.8467Z" fill="white"/>
<path d="M62.8226 57.0312H60.2632V60.1025H62.8226V57.0312Z" fill="white"/>
<path d="M64.5229 59.8467C65.2296 59.8467 65.8026 59.2738 65.8026 58.5671C65.8026 57.8603 65.2296 57.2874 64.5229 57.2874C63.8161 57.2874 63.2432 57.8603 63.2432 58.5671C63.2432 59.2738 63.8161 59.8467 64.5229 59.8467Z" fill="white"/>
<path d="M68.7742 57.0312H66.2148V60.1025H68.7742V57.0312Z" fill="white"/>
<path d="M73.4667 59.8466C72.7501 59.8466 72.187 59.2835 72.187 58.5669V57.0312H74.7464V58.5669C74.7464 59.2835 74.1833 59.8466 73.4667 59.8466Z" fill="white"/>
<path d="M76.4467 59.8467C77.1534 59.8467 77.7264 59.2738 77.7264 58.5671C77.7264 57.8603 77.1534 57.2874 76.4467 57.2874C75.7399 57.2874 75.167 57.8603 75.167 58.5671C75.167 59.2738 75.7399 59.8467 76.4467 59.8467Z" fill="white"/>
<path d="M79.4267 59.8466C78.71 59.8466 78.147 59.2835 78.147 58.5669V57.0312H80.7064V58.5669C80.7064 59.2835 80.1433 59.8466 79.4267 59.8466Z" fill="white"/>
<path d="M94.3427 59.8467C95.0494 59.8467 95.6224 59.2738 95.6224 58.5671C95.6224 57.8603 95.0494 57.2874 94.3427 57.2874C93.6359 57.2874 93.063 57.8603 93.063 58.5671C93.063 59.2738 93.6359 59.8467 94.3427 59.8467Z" fill="white"/>
<path d="M104.575 57.0312H102.015V60.1025H104.575V57.0312Z" fill="white"/>
<path d="M106.25 59.8466C105.533 59.8466 104.97 59.2835 104.97 58.5669V57.0312H107.53V58.5669C107.53 59.2835 106.967 59.8466 106.25 59.8466Z" fill="white"/>
<path d="M19.7987 62.8226C20.5055 62.8226 21.0784 62.2496 21.0784 61.5429C21.0784 60.8361 20.5055 60.2632 19.7987 60.2632C19.092 60.2632 18.519 60.8361 18.519 61.5429C18.519 62.2496 19.092 62.8226 19.7987 62.8226Z" fill="white"/>
<path d="M22.7704 62.8226C23.4772 62.8226 24.0501 62.2496 24.0501 61.5429C24.0501 60.8361 23.4772 60.2632 22.7704 60.2632C22.0637 60.2632 21.4907 60.8361 21.4907 61.5429C21.4907 62.2496 22.0637 62.8226 22.7704 62.8226Z" fill="white"/>
<path d="M31.7143 62.8226C32.421 62.8226 32.994 62.2496 32.994 61.5429C32.994 60.8361 32.421 60.2632 31.7143 60.2632C31.0075 60.2632 30.4346 60.8361 30.4346 61.5429C30.4346 62.2496 31.0075 62.8226 31.7143 62.8226Z" fill="white"/>
<path d="M34.6942 62.8141C33.9776 62.8141 33.4146 62.251 33.4146 61.5344V59.9988H35.9739V61.5344C35.9739 62.251 35.4109 62.8141 34.6942 62.8141Z" fill="white"/>
<path d="M37.6864 62.8226C38.3932 62.8226 38.9661 62.2496 38.9661 61.5429C38.9661 60.8361 38.3932 60.2632 37.6864 60.2632C36.9797 60.2632 36.4067 60.8361 36.4067 61.5429C36.4067 62.2496 36.9797 62.8226 37.6864 62.8226Z" fill="white"/>
<path d="M53.8787 63.0785H51.3193V61.5429C51.3193 60.8263 51.8824 60.2632 52.599 60.2632C53.3157 60.2632 53.8787 60.8263 53.8787 61.5429V63.0785Z" fill="white"/>
<path d="M61.5429 62.8141C60.8263 62.8141 60.2632 62.251 60.2632 61.5344V59.9988H62.8226V61.5344C62.8226 62.251 62.2595 62.8141 61.5429 62.8141Z" fill="white"/>
<path d="M67.4945 62.8141C66.7779 62.8141 66.2148 62.251 66.2148 61.5344V59.9988H68.7742V61.5344C68.7742 62.251 68.2112 62.8141 67.4945 62.8141Z" fill="white"/>
<path d="M71.7542 63.0785H69.1948V61.5429C69.1948 60.8263 69.7579 60.2632 70.4745 60.2632C71.1912 60.2632 71.7542 60.8263 71.7542 61.5429V63.0785Z" fill="white"/>
<path d="M97.3022 62.8226C98.0089 62.8226 98.5819 62.2496 98.5819 61.5429C98.5819 60.8361 98.0089 60.2632 97.3022 60.2632C96.5954 60.2632 96.0225 60.8361 96.0225 61.5429C96.0225 62.2496 96.5954 62.8226 97.3022 62.8226Z" fill="white"/>
<path d="M100.303 62.8226C101.009 62.8226 101.582 62.2496 101.582 61.5429C101.582 60.8361 101.009 60.2632 100.303 60.2632C99.5959 60.2632 99.0229 60.8361 99.0229 61.5429C99.0229 62.2496 99.5959 62.8226 100.303 62.8226Z" fill="white"/>
<path d="M103.295 62.8141C102.578 62.8141 102.015 62.251 102.015 61.5344V59.9988H104.575V61.5344C104.575 62.251 104.011 62.8141 103.295 62.8141Z" fill="white"/>
<path d="M109.246 62.8226C109.953 62.8226 110.526 62.2496 110.526 61.5429C110.526 60.8361 109.953 60.2632 109.246 60.2632C108.54 60.2632 107.967 60.8361 107.967 61.5429C107.967 62.2496 108.54 62.8226 109.246 62.8226Z" fill="white"/>
<path d="M13.8432 65.8026C14.5499 65.8026 15.1229 65.2296 15.1229 64.5229C15.1229 63.8161 14.5499 63.2432 13.8432 63.2432C13.1364 63.2432 12.5635 63.8161 12.5635 64.5229C12.5635 65.2296 13.1364 65.8026 13.8432 65.8026Z" fill="white"/>
<path d="M27.0218 66.0585H24.4624V64.5229C24.4624 63.8062 25.0255 63.2432 25.7421 63.2432C26.4587 63.2432 27.0218 63.8062 27.0218 64.5229V66.0585Z" fill="white"/>
<path d="M44.9305 66.0585H42.3711V64.5229C42.3711 63.8062 42.9342 63.2432 43.6508 63.2432C44.3674 63.2432 44.9305 63.8062 44.9305 64.5229V66.0585Z" fill="white"/>
<path d="M46.643 65.8026C47.3497 65.8026 47.9227 65.2296 47.9227 64.5229C47.9227 63.8161 47.3497 63.2432 46.643 63.2432C45.9362 63.2432 45.3633 63.8161 45.3633 64.5229C45.3633 65.2296 45.9362 65.8026 46.643 65.8026Z" fill="white"/>
<path d="M50.8944 66.0585H48.335V64.5229C48.335 63.8062 48.898 63.2432 49.6147 63.2432C50.3313 63.2432 50.8944 63.8062 50.8944 64.5229V66.0585Z" fill="white"/>
<path d="M53.8787 62.9788H51.3193V66.05H53.8787V62.9788Z" fill="white"/>
<path d="M56.8665 66.0585H54.3071V64.5229C54.3071 63.8062 54.8702 63.2432 55.5868 63.2432C56.3035 63.2432 56.8665 63.8062 56.8665 64.5229V66.0585Z" fill="white"/>
<path d="M65.8026 66.0585H63.2432V64.5229C63.2432 63.8062 63.8062 63.2432 64.5229 63.2432C65.2395 63.2432 65.8026 63.8062 65.8026 64.5229V66.0585Z" fill="white"/>
<path d="M70.4745 65.7941C69.7579 65.7941 69.1948 65.231 69.1948 64.5144V62.9788H71.7542V64.5144C71.7542 65.231 71.1912 65.7941 70.4745 65.7941Z" fill="white"/>
<path d="M73.4667 65.8026C74.1735 65.8026 74.7464 65.2296 74.7464 64.5229C74.7464 63.8161 74.1735 63.2432 73.4667 63.2432C72.76 63.2432 72.187 63.8161 72.187 64.5229C72.187 65.2296 72.76 65.8026 73.4667 65.8026Z" fill="white"/>
<path d="M77.7264 66.0585H75.167V64.5229C75.167 63.8062 75.7301 63.2432 76.4467 63.2432C77.1633 63.2432 77.7264 63.8062 77.7264 64.5229V66.0585Z" fill="white"/>
<path d="M82.4189 65.8026C83.1256 65.8026 83.6986 65.2296 83.6986 64.5229C83.6986 63.8161 83.1256 63.2432 82.4189 63.2432C81.7121 63.2432 81.1392 63.8161 81.1392 64.5229C81.1392 65.2296 81.7121 65.8026 82.4189 65.8026Z" fill="white"/>
<path d="M85.3988 65.8026C86.1056 65.8026 86.6785 65.2296 86.6785 64.5229C86.6785 63.8161 86.1056 63.2432 85.3988 63.2432C84.6921 63.2432 84.1191 63.8161 84.1191 64.5229C84.1191 65.2296 84.6921 65.8026 85.3988 65.8026Z" fill="white"/>
<path d="M92.6463 66.0585H90.0869V64.5229C90.0869 63.8062 90.65 63.2432 91.3666 63.2432C92.0832 63.2432 92.6463 63.8062 92.6463 64.5229V66.0585Z" fill="white"/>
<path d="M18.0902 69.0302H15.5308V67.4945C15.5308 66.7779 16.0938 66.2148 16.8105 66.2148C17.5271 66.2148 18.0902 66.7779 18.0902 67.4945V69.0302Z" fill="white"/>
<path d="M27.0218 65.9751H24.4624V69.0464H27.0218V65.9751Z" fill="white"/>
<path d="M31.7143 68.7742C32.421 68.7742 32.994 68.2013 32.994 67.4945C32.994 66.7878 32.421 66.2148 31.7143 66.2148C31.0075 66.2148 30.4346 66.7878 30.4346 67.4945C30.4346 68.2013 31.0075 68.7742 31.7143 68.7742Z" fill="white"/>
<path d="M41.9461 69.0302H39.3867V67.4945C39.3867 66.7779 39.9498 66.2148 40.6664 66.2148C41.383 66.2148 41.9461 66.7779 41.9461 67.4945V69.0302Z" fill="white"/>
<path d="M44.9305 65.9751H42.3711V69.0464H44.9305V65.9751Z" fill="white"/>
<path d="M50.8944 65.9751H48.335V69.0464H50.8944V65.9751Z" fill="white"/>
<path d="M52.599 68.7904C51.8824 68.7904 51.3193 68.2274 51.3193 67.5107V65.9751H53.8787V67.5107C53.8787 68.2274 53.3157 68.7904 52.599 68.7904Z" fill="white"/>
<path d="M55.5868 68.7904C54.8702 68.7904 54.3071 68.2274 54.3071 67.5107V65.9751H56.8665V67.5107C56.8665 68.2274 56.3035 68.7904 55.5868 68.7904Z" fill="white"/>
<path d="M58.5668 68.7742C59.2736 68.7742 59.8465 68.2013 59.8465 67.4945C59.8465 66.7878 59.2736 66.2148 58.5668 66.2148C57.86 66.2148 57.2871 66.7878 57.2871 67.4945C57.2871 68.2013 57.86 68.7742 58.5668 68.7742Z" fill="white"/>
<path d="M62.8226 69.0302H60.2632V67.4945C60.2632 66.7779 60.8263 66.2148 61.5429 66.2148C62.2595 66.2148 62.8226 66.7779 62.8226 67.4945V69.0302Z" fill="white"/>
<path d="M64.5229 68.7904C63.8062 68.7904 63.2432 68.2274 63.2432 67.5107V65.9751H65.8026V67.5107C65.8026 68.2274 65.2395 68.7904 64.5229 68.7904Z" fill="white"/>
<path d="M68.7742 69.0302H66.2148V67.4945C66.2148 66.7779 66.7779 66.2148 67.4945 66.2148C68.2112 66.2148 68.7742 66.7779 68.7742 67.4945V69.0302Z" fill="white"/>
<path d="M77.7264 65.9751H75.167V69.0464H77.7264V65.9751Z" fill="white"/>
<path d="M88.3705 68.7742C89.0773 68.7742 89.6502 68.2013 89.6502 67.4945C89.6502 66.7878 89.0773 66.2148 88.3705 66.2148C87.6638 66.2148 87.0908 66.7878 87.0908 67.4945C87.0908 68.2013 87.6638 68.7742 88.3705 68.7742Z" fill="white"/>
<path d="M92.6463 65.9751H90.0869V69.0464H92.6463V65.9751Z" fill="white"/>
<path d="M95.6224 69.0302H93.063V67.4945C93.063 66.7779 93.6261 66.2148 94.3427 66.2148C95.0593 66.2148 95.6224 66.7779 95.6224 67.4945V69.0302Z" fill="white"/>
<path d="M97.3022 68.7742C98.0089 68.7742 98.5819 68.2013 98.5819 67.4945C98.5819 66.7878 98.0089 66.2148 97.3022 66.2148C96.5954 66.2148 96.0225 66.7878 96.0225 67.4945C96.0225 68.2013 96.5954 68.7742 97.3022 68.7742Z" fill="white"/>
<path d="M104.575 69.0302H102.015V67.4945C102.015 66.7779 102.578 66.2148 103.295 66.2148C104.011 66.2148 104.575 66.7779 104.575 67.4945V69.0302Z" fill="white"/>
<path d="M106.25 68.7742C106.957 68.7742 107.53 68.2013 107.53 67.4945C107.53 66.7878 106.957 66.2148 106.25 66.2148C105.543 66.2148 104.97 66.7878 104.97 67.4945C104.97 68.2013 105.543 68.7742 106.25 68.7742Z" fill="white"/>
<path d="M110.526 69.0302H107.967V67.4945C107.967 66.7779 108.53 66.2148 109.246 66.2148C109.963 66.2148 110.526 66.7779 110.526 67.4945V69.0302Z" fill="white"/>
<path d="M18.0902 68.9468H15.5308V72.0181H18.0902V68.9468Z" fill="white"/>
<path d="M19.7987 71.7542C20.5055 71.7542 21.0784 71.1813 21.0784 70.4745C21.0784 69.7678 20.5055 69.1948 19.7987 69.1948C19.092 69.1948 18.519 69.7678 18.519 70.4745C18.519 71.1813 19.092 71.7542 19.7987 71.7542Z" fill="white"/>
<path d="M25.7421 71.7621C25.0255 71.7621 24.4624 71.199 24.4624 70.4824V68.9468H27.0218V70.4824C27.0218 71.199 26.4587 71.7621 25.7421 71.7621Z" fill="white"/>
<path d="M38.9661 72.0102H36.4067V70.4745C36.4067 69.7579 36.9698 69.1948 37.6864 69.1948C38.4031 69.1948 38.9661 69.7579 38.9661 70.4745V72.0102Z" fill="white"/>
<path d="M41.9461 68.9468H39.3867V72.0181H41.9461V68.9468Z" fill="white"/>
<path d="M43.6508 71.7621C42.9342 71.7621 42.3711 71.199 42.3711 70.4824V68.9468H44.9305V70.4824C44.9305 71.199 44.3674 71.7621 43.6508 71.7621Z" fill="white"/>
<path d="M49.6147 71.7621C48.898 71.7621 48.335 71.199 48.335 70.4824V68.9468H50.8944V70.4824C50.8944 71.199 50.3313 71.7621 49.6147 71.7621Z" fill="white"/>
<path d="M61.5429 71.7621C60.8263 71.7621 60.2632 71.199 60.2632 70.4824V68.9468H62.8226V70.4824C62.8226 71.199 62.2595 71.7621 61.5429 71.7621Z" fill="white"/>
<path d="M67.4945 71.7621C66.7779 71.7621 66.2148 71.199 66.2148 70.4824V68.9468H68.7742V70.4824C68.7742 71.199 68.2112 71.7621 67.4945 71.7621Z" fill="white"/>
<path d="M70.4745 71.7542C71.1813 71.7542 71.7542 71.1813 71.7542 70.4745C71.7542 69.7678 71.1813 69.1948 70.4745 69.1948C69.7678 69.1948 69.1948 69.7678 69.1948 70.4745C69.1948 71.1813 69.7678 71.7542 70.4745 71.7542Z" fill="white"/>
<path d="M76.4467 71.7621C75.7301 71.7621 75.167 71.199 75.167 70.4824V68.9468H77.7264V70.4824C77.7264 71.199 77.1633 71.7621 76.4467 71.7621Z" fill="white"/>
<path d="M80.7064 72.0102H78.147V70.4745C78.147 69.7579 78.71 69.1948 79.4267 69.1948C80.1433 69.1948 80.7064 69.7579 80.7064 70.4745V72.0102Z" fill="white"/>
<path d="M82.4189 71.7542C83.1256 71.7542 83.6986 71.1813 83.6986 70.4745C83.6986 69.7678 83.1256 69.1948 82.4189 69.1948C81.7121 69.1948 81.1392 69.7678 81.1392 70.4745C81.1392 71.1813 81.7121 71.7542 82.4189 71.7542Z" fill="white"/>
<path d="M85.3988 71.7542C86.1056 71.7542 86.6785 71.1813 86.6785 70.4745C86.6785 69.7678 86.1056 69.1948 85.3988 69.1948C84.6921 69.1948 84.1191 69.7678 84.1191 70.4745C84.1191 71.1813 84.6921 71.7542 85.3988 71.7542Z" fill="white"/>
<path d="M92.6463 68.9468H90.0869V72.0181H92.6463V68.9468Z" fill="white"/>
<path d="M94.3427 71.7621C93.6261 71.7621 93.063 71.199 93.063 70.4824V68.9468H95.6224V70.4824C95.6224 71.199 95.0593 71.7621 94.3427 71.7621Z" fill="white"/>
<path d="M101.582 72.0102H99.0229V70.4745C99.0229 69.7579 99.586 69.1948 100.303 69.1948C101.019 69.1948 101.582 69.7579 101.582 70.4745V72.0102Z" fill="white"/>
<path d="M103.295 71.7621C102.578 71.7621 102.015 71.199 102.015 70.4824V68.9468H104.575V70.4824C104.575 71.199 104.011 71.7621 103.295 71.7621Z" fill="white"/>
<path d="M110.526 68.9468H107.967V72.0181H110.526V68.9468Z" fill="white"/>
<path d="M16.8105 74.7462C16.0938 74.7462 15.5308 74.1832 15.5308 73.4665V71.9309H18.0902V73.4665C18.0902 74.1832 17.5271 74.7462 16.8105 74.7462Z" fill="white"/>
<path d="M31.7143 74.7464C32.421 74.7464 32.994 74.1735 32.994 73.4667C32.994 72.76 32.421 72.187 31.7143 72.187C31.0075 72.187 30.4346 72.76 30.4346 73.4667C30.4346 74.1735 31.0075 74.7464 31.7143 74.7464Z" fill="white"/>
<path d="M35.9739 75.0023H33.4146V73.4667C33.4146 72.7501 33.9776 72.187 34.6942 72.187C35.4109 72.187 35.9739 72.7501 35.9739 73.4667V75.0023Z" fill="white"/>
<path d="M37.6864 74.7462C36.9698 74.7462 36.4067 74.1832 36.4067 73.4665V71.9309H38.9661V73.4665C38.9661 74.1832 38.4031 74.7462 37.6864 74.7462Z" fill="white"/>
<path d="M41.9461 71.9309H39.3867V75.0022H41.9461V71.9309Z" fill="white"/>
<path d="M58.5668 74.7464C59.2736 74.7464 59.8465 74.1735 59.8465 73.4667C59.8465 72.76 59.2736 72.187 58.5668 72.187C57.86 72.187 57.2871 72.76 57.2871 73.4667C57.2871 74.1735 57.86 74.7464 58.5668 74.7464Z" fill="white"/>
<path d="M79.4267 74.7462C78.71 74.7462 78.147 74.1832 78.147 73.4665V71.9309H80.7064V73.4665C80.7064 74.1832 80.1433 74.7462 79.4267 74.7462Z" fill="white"/>
<path d="M88.3705 74.7464C89.0773 74.7464 89.6502 74.1735 89.6502 73.4667C89.6502 72.76 89.0773 72.187 88.3705 72.187C87.6638 72.187 87.0908 72.76 87.0908 73.4667C87.0908 74.1735 87.6638 74.7464 88.3705 74.7464Z" fill="white"/>
<path d="M91.3666 74.7462C90.65 74.7462 90.0869 74.1832 90.0869 73.4665V71.9309H92.6463V73.4665C92.6463 74.1832 92.0832 74.7462 91.3666 74.7462Z" fill="white"/>
<path d="M97.3022 74.7464C98.0089 74.7464 98.5819 74.1735 98.5819 73.4667C98.5819 72.76 98.0089 72.187 97.3022 72.187C96.5954 72.187 96.0225 72.76 96.0225 73.4667C96.0225 74.1735 96.5954 74.7464 97.3022 74.7464Z" fill="white"/>
<path d="M100.303 74.7462C99.586 74.7462 99.0229 74.1832 99.0229 73.4665V71.9309H101.582V73.4665C101.582 74.1832 101.019 74.7462 100.303 74.7462Z" fill="white"/>
<path d="M106.25 74.7464C106.957 74.7464 107.53 74.1735 107.53 73.4667C107.53 72.76 106.957 72.187 106.25 72.187C105.543 72.187 104.97 72.76 104.97 73.4667C104.97 74.1735 105.543 74.7464 106.25 74.7464Z" fill="white"/>
<path d="M110.526 71.9309H107.967V75.0022H110.526V71.9309Z" fill="white"/>
<path d="M15.1229 77.9823H12.5635V76.4467C12.5635 75.7301 13.1265 75.167 13.8432 75.167C14.5598 75.167 15.1229 75.7301 15.1229 76.4467V77.9823Z" fill="white"/>
<path d="M19.7987 77.7264C20.5055 77.7264 21.0784 77.1534 21.0784 76.4467C21.0784 75.7399 20.5055 75.167 19.7987 75.167C19.092 75.167 18.519 75.7399 18.519 76.4467C18.519 77.1534 19.092 77.7264 19.7987 77.7264Z" fill="white"/>
<path d="M22.7704 77.7264C23.4772 77.7264 24.0501 77.1534 24.0501 76.4467C24.0501 75.7399 23.4772 75.167 22.7704 75.167C22.0637 75.167 21.4907 75.7399 21.4907 76.4467C21.4907 77.1534 22.0637 77.7264 22.7704 77.7264Z" fill="white"/>
<path d="M27.0218 77.9823H24.4624V76.4467C24.4624 75.7301 25.0255 75.167 25.7421 75.167C26.4587 75.167 27.0218 75.7301 27.0218 76.4467V77.9823Z" fill="white"/>
<path d="M30.0267 77.9823H27.4673V76.4467C27.4673 75.7301 28.0304 75.167 28.747 75.167C29.4636 75.167 30.0267 75.7301 30.0267 76.4467V77.9823Z" fill="white"/>
<path d="M34.6942 77.7265C33.9776 77.7265 33.4146 77.1634 33.4146 76.4468V74.9111H35.9739V76.4468C35.9739 77.1634 35.4109 77.7265 34.6942 77.7265Z" fill="white"/>
<path d="M41.9461 74.9111H39.3867V77.9824H41.9461V74.9111Z" fill="white"/>
<path d="M44.9305 77.9823H42.3711V76.4467C42.3711 75.7301 42.9342 75.167 43.6508 75.167C44.3674 75.167 44.9305 75.7301 44.9305 76.4467V77.9823Z" fill="white"/>
<path d="M46.643 77.7264C47.3497 77.7264 47.9227 77.1534 47.9227 76.4467C47.9227 75.7399 47.3497 75.167 46.643 75.167C45.9362 75.167 45.3633 75.7399 45.3633 76.4467C45.3633 77.1534 45.9362 77.7264 46.643 77.7264Z" fill="white"/>
<path d="M50.8944 77.9823H48.335V76.4467C48.335 75.7301 48.898 75.167 49.6147 75.167C50.3313 75.167 50.8944 75.7301 50.8944 76.4467V77.9823Z" fill="white"/>
<path d="M52.599 77.7264C53.3058 77.7264 53.8787 77.1534 53.8787 76.4467C53.8787 75.7399 53.3058 75.167 52.599 75.167C51.8923 75.167 51.3193 75.7399 51.3193 76.4467C51.3193 77.1534 51.8923 77.7264 52.599 77.7264Z" fill="white"/>
<path d="M55.5868 77.7264C56.2936 77.7264 56.8665 77.1534 56.8665 76.4467C56.8665 75.7399 56.2936 75.167 55.5868 75.167C54.8801 75.167 54.3071 75.7399 54.3071 76.4467C54.3071 77.1534 54.8801 77.7264 55.5868 77.7264Z" fill="white"/>
<path d="M68.7742 77.9823H66.2148V76.4467C66.2148 75.7301 66.7779 75.167 67.4945 75.167C68.2112 75.167 68.7742 75.7301 68.7742 76.4467V77.9823Z" fill="white"/>
<path d="M74.7464 77.9823H72.187V76.4467C72.187 75.7301 72.7501 75.167 73.4667 75.167C74.1833 75.167 74.7464 75.7301 74.7464 76.4467V77.9823Z" fill="white"/>
<path d="M85.3988 77.7264C86.1056 77.7264 86.6785 77.1534 86.6785 76.4467C86.6785 75.7399 86.1056 75.167 85.3988 75.167C84.6921 75.167 84.1191 75.7399 84.1191 76.4467C84.1191 77.1534 84.6921 77.7264 85.3988 77.7264Z" fill="white"/>
<path d="M109.246 77.7265C108.53 77.7265 107.967 77.1634 107.967 76.4468V74.9111H110.526V76.4468C110.526 77.1634 109.963 77.7265 109.246 77.7265Z" fill="white"/>
<path d="M15.1229 77.8826H12.5635V80.9538H15.1229V77.8826Z" fill="white"/>
<path d="M25.7421 80.6979C25.0255 80.6979 24.4624 80.1348 24.4624 79.4182V77.8826H27.0218V79.4182C27.0218 80.1348 26.4587 80.6979 25.7421 80.6979Z" fill="white"/>
<path d="M30.0267 77.8826H27.4673V80.9538H30.0267V77.8826Z" fill="white"/>
<path d="M31.7143 80.7066C32.421 80.7066 32.994 80.1337 32.994 79.4269C32.994 78.7202 32.421 78.1472 31.7143 78.1472C31.0075 78.1472 30.4346 78.7202 30.4346 79.4269C30.4346 80.1337 31.0075 80.7066 31.7143 80.7066Z" fill="white"/>
<path d="M40.6664 80.6979C39.9498 80.6979 39.3867 80.1348 39.3867 79.4182V77.8826H41.9461V79.4182C41.9461 80.1348 41.383 80.6979 40.6664 80.6979Z" fill="white"/>
<path d="M44.9305 77.8826H42.3711V80.9538H44.9305V77.8826Z" fill="white"/>
<path d="M49.6147 80.6979C48.898 80.6979 48.335 80.1348 48.335 79.4182V77.8826H50.8944V79.4182C50.8944 80.1348 50.3313 80.6979 49.6147 80.6979Z" fill="white"/>
<path d="M61.5429 80.7066C62.2496 80.7066 62.8226 80.1337 62.8226 79.4269C62.8226 78.7202 62.2496 78.1472 61.5429 78.1472C60.8361 78.1472 60.2632 78.7202 60.2632 79.4269C60.2632 80.1337 60.8361 80.7066 61.5429 80.7066Z" fill="white"/>
<path d="M64.5229 80.7066C65.2296 80.7066 65.8026 80.1337 65.8026 79.4269C65.8026 78.7202 65.2296 78.1472 64.5229 78.1472C63.8161 78.1472 63.2432 78.7202 63.2432 79.4269C63.2432 80.1337 63.8161 80.7066 64.5229 80.7066Z" fill="white"/>
<path d="M67.4945 80.6979C66.7779 80.6979 66.2148 80.1348 66.2148 79.4182V77.8826H68.7742V79.4182C68.7742 80.1348 68.2112 80.6979 67.4945 80.6979Z" fill="white"/>
<path d="M74.7464 77.8826H72.187V80.9538H74.7464V77.8826Z" fill="white"/>
<path d="M80.7064 80.9626H78.147V79.4269C78.147 78.7103 78.71 78.1472 79.4267 78.1472C80.1433 78.1472 80.7064 78.7103 80.7064 79.4269V80.9626Z" fill="white"/>
<path d="M98.5819 80.9626H96.0225V79.4269C96.0225 78.7103 96.5855 78.1472 97.3022 78.1472C98.0188 78.1472 98.5819 78.7103 98.5819 79.4269V80.9626Z" fill="white"/>
<path d="M104.575 80.9626H102.015V79.4269C102.015 78.7103 102.578 78.1472 103.295 78.1472C104.011 78.1472 104.575 78.7103 104.575 79.4269V80.9626Z" fill="white"/>
<path d="M106.25 80.7066C106.957 80.7066 107.53 80.1337 107.53 79.4269C107.53 78.7202 106.957 78.1472 106.25 78.1472C105.543 78.1472 104.97 78.7202 104.97 79.4269C104.97 80.1337 105.543 80.7066 106.25 80.7066Z" fill="white"/>
<path d="M15.1229 80.8748H12.5635V83.946H15.1229V80.8748Z" fill="white"/>
<path d="M21.0784 83.9547H18.519V82.4191C18.519 81.7025 19.0821 81.1394 19.7987 81.1394C20.5154 81.1394 21.0784 81.7025 21.0784 82.4191V83.9547Z" fill="white"/>
<path d="M24.0501 83.9547H21.4907V82.4191C21.4907 81.7025 22.0538 81.1394 22.7704 81.1394C23.4871 81.1394 24.0501 81.7025 24.0501 82.4191V83.9547Z" fill="white"/>
<path d="M30.0267 80.8748H27.4673V83.946H30.0267V80.8748Z" fill="white"/>
<path d="M34.6942 83.6988C35.401 83.6988 35.9739 83.1259 35.9739 82.4191C35.9739 81.7123 35.401 81.1394 34.6942 81.1394C33.9875 81.1394 33.4146 81.7123 33.4146 82.4191C33.4146 83.1259 33.9875 83.6988 34.6942 83.6988Z" fill="white"/>
<path d="M38.9661 83.9547H36.4067V82.4191C36.4067 81.7025 36.9698 81.1394 37.6864 81.1394C38.4031 81.1394 38.9661 81.7025 38.9661 82.4191V83.9547Z" fill="white"/>
<path d="M43.6508 83.6901C42.9342 83.6901 42.3711 83.127 42.3711 82.4104V80.8748H44.9305V82.4104C44.9305 83.127 44.3674 83.6901 43.6508 83.6901Z" fill="white"/>
<path d="M52.599 83.6988C53.3058 83.6988 53.8787 83.1259 53.8787 82.4191C53.8787 81.7123 53.3058 81.1394 52.599 81.1394C51.8923 81.1394 51.3193 81.7123 51.3193 82.4191C51.3193 83.1259 51.8923 83.6988 52.599 83.6988Z" fill="white"/>
<path d="M70.4745 83.6988C71.1813 83.6988 71.7542 83.1259 71.7542 82.4191C71.7542 81.7123 71.1813 81.1394 70.4745 81.1394C69.7678 81.1394 69.1948 81.7123 69.1948 82.4191C69.1948 83.1259 69.7678 83.6988 70.4745 83.6988Z" fill="white"/>
<path d="M74.7464 80.8748H72.187V83.946H74.7464V80.8748Z" fill="white"/>
<path d="M77.7264 83.9547H75.167V82.4191C75.167 81.7025 75.7301 81.1394 76.4467 81.1394C77.1633 81.1394 77.7264 81.7025 77.7264 82.4191V83.9547Z" fill="white"/>
<path d="M79.4267 83.6901C78.71 83.6901 78.147 83.127 78.147 82.4104V80.8748H80.7064V82.4104C80.7064 83.127 80.1433 83.6901 79.4267 83.6901Z" fill="white"/>
<path d="M86.6785 83.9547H84.1191V82.4191C84.1191 81.7025 84.6822 81.1394 85.3988 81.1394C86.1155 81.1394 86.6785 81.7025 86.6785 82.4191V83.9547Z" fill="white"/>
<path d="M98.5819 80.8748H96.0225V83.946H98.5819V80.8748Z" fill="white"/>
<path d="M100.303 83.6988C101.009 83.6988 101.582 83.1259 101.582 82.4191C101.582 81.7123 101.009 81.1394 100.303 81.1394C99.5959 81.1394 99.0229 81.7123 99.0229 82.4191C99.0229 83.1259 99.5959 83.6988 100.303 83.6988Z" fill="white"/>
<path d="M103.295 83.6901C102.578 83.6901 102.015 83.127 102.015 82.4104V80.8748H104.575V82.4104C104.575 83.127 104.011 83.6901 103.295 83.6901Z" fill="white"/>
<path d="M13.8432 86.6701C13.1265 86.6701 12.5635 86.107 12.5635 85.3904V83.8547H15.1229V85.3904C15.1229 86.107 14.5598 86.6701 13.8432 86.6701Z" fill="white"/>
<path d="M19.7987 86.6701C19.0821 86.6701 18.519 86.107 18.519 85.3904V83.8547H21.0784V85.3904C21.0784 86.107 20.5154 86.6701 19.7987 86.6701Z" fill="white"/>
<path d="M22.7704 86.6701C22.0538 86.6701 21.4907 86.107 21.4907 85.3904V83.8547H24.0501V85.3904C24.0501 86.107 23.4871 86.6701 22.7704 86.6701Z" fill="white"/>
<path d="M25.7421 86.6702C26.4489 86.6702 27.0218 86.0973 27.0218 85.3905C27.0218 84.6838 26.4489 84.1108 25.7421 84.1108C25.0353 84.1108 24.4624 84.6838 24.4624 85.3905C24.4624 86.0973 25.0353 86.6702 25.7421 86.6702Z" fill="white"/>
<path d="M28.747 86.6701C28.0304 86.6701 27.4673 86.107 27.4673 85.3904V83.8547H30.0267V85.3904C30.0267 86.107 29.4636 86.6701 28.747 86.6701Z" fill="white"/>
<path d="M31.7143 86.6702C32.421 86.6702 32.994 86.0973 32.994 85.3905C32.994 84.6838 32.421 84.1108 31.7143 84.1108C31.0075 84.1108 30.4346 84.6838 30.4346 85.3905C30.4346 86.0973 31.0075 86.6702 31.7143 86.6702Z" fill="white"/>
<path d="M38.9661 83.8547H36.4067V86.926H38.9661V83.8547Z" fill="white"/>
<path d="M41.9461 86.9262H39.3867V85.3905C39.3867 84.6739 39.9498 84.1108 40.6664 84.1108C41.383 84.1108 41.9461 84.6739 41.9461 85.3905V86.9262Z" fill="white"/>
<path d="M49.6147 86.6702C50.3214 86.6702 50.8944 86.0973 50.8944 85.3905C50.8944 84.6838 50.3214 84.1108 49.6147 84.1108C48.9079 84.1108 48.335 84.6838 48.335 85.3905C48.335 86.0973 48.9079 86.6702 49.6147 86.6702Z" fill="white"/>
<path d="M55.5868 86.6702C56.2936 86.6702 56.8665 86.0973 56.8665 85.3905C56.8665 84.6838 56.2936 84.1108 55.5868 84.1108C54.8801 84.1108 54.3071 84.6838 54.3071 85.3905C54.3071 86.0973 54.8801 86.6702 55.5868 86.6702Z" fill="white"/>
<path d="M58.5668 86.6702C59.2736 86.6702 59.8465 86.0973 59.8465 85.3905C59.8465 84.6838 59.2736 84.1108 58.5668 84.1108C57.86 84.1108 57.2871 84.6838 57.2871 85.3905C57.2871 86.0973 57.86 86.6702 58.5668 86.6702Z" fill="white"/>
<path d="M64.5229 86.6702C65.2296 86.6702 65.8026 86.0973 65.8026 85.3905C65.8026 84.6838 65.2296 84.1108 64.5229 84.1108C63.8161 84.1108 63.2432 84.6838 63.2432 85.3905C63.2432 86.0973 63.8161 86.6702 64.5229 86.6702Z" fill="white"/>
<path d="M74.7464 83.8547H72.187V86.926H74.7464V83.8547Z" fill="white"/>
<path d="M76.4467 86.6701C75.7301 86.6701 75.167 86.107 75.167 85.3904V83.8547H77.7264V85.3904C77.7264 86.107 77.1633 86.6701 76.4467 86.6701Z" fill="white"/>
<path d="M86.6785 83.8547H84.1191V86.926H86.6785V83.8547Z" fill="white"/>
<path d="M88.3705 86.6702C89.0773 86.6702 89.6502 86.0973 89.6502 85.3905C89.6502 84.6838 89.0773 84.1108 88.3705 84.1108C87.6638 84.1108 87.0908 84.6838 87.0908 85.3905C87.0908 86.0973 87.6638 86.6702 88.3705 86.6702Z" fill="white"/>
<path d="M91.3666 86.6702C92.0734 86.6702 92.6463 86.0973 92.6463 85.3905C92.6463 84.6838 92.0734 84.1108 91.3666 84.1108C90.6599 84.1108 90.0869 84.6838 90.0869 85.3905C90.0869 86.0973 90.6599 86.6702 91.3666 86.6702Z" fill="white"/>
<path d="M94.3427 86.6702C95.0494 86.6702 95.6224 86.0973 95.6224 85.3905C95.6224 84.6838 95.0494 84.1108 94.3427 84.1108C93.6359 84.1108 93.063 84.6838 93.063 85.3905C93.063 86.0973 93.6359 86.6702 94.3427 86.6702Z" fill="white"/>
<path d="M98.5819 83.8547H96.0225V86.926H98.5819V83.8547Z" fill="white"/>
<path d="M107.53 86.9262H104.97V85.3905C104.97 84.6739 105.533 84.1108 106.25 84.1108C106.967 84.1108 107.53 84.6739 107.53 85.3905V86.9262Z" fill="white"/>
<path d="M110.526 86.9262H107.967V85.3905C107.967 84.6739 108.53 84.1108 109.246 84.1108C109.963 84.1108 110.526 84.6739 110.526 85.3905V86.9262Z" fill="white"/>
<path d="M37.6864 89.6503C36.9698 89.6503 36.4067 89.0872 36.4067 88.3706V86.835H38.9661V88.3706C38.9661 89.0872 38.4031 89.6503 37.6864 89.6503Z" fill="white"/>
<path d="M40.6664 89.6503C39.9498 89.6503 39.3867 89.0872 39.3867 88.3706V86.835H41.9461V88.3706C41.9461 89.0872 41.383 89.6503 40.6664 89.6503Z" fill="white"/>
<path d="M62.8226 89.9064H60.2632V88.3708C60.2632 87.6541 60.8263 87.0911 61.5429 87.0911C62.2595 87.0911 62.8226 87.6541 62.8226 88.3708V89.9064Z" fill="white"/>
<path d="M74.7464 86.835H72.187V89.9062H74.7464V86.835Z" fill="white"/>
<path d="M86.6785 86.835H84.1191V89.9062H86.6785V86.835Z" fill="white"/>
<path d="M98.5819 86.835H96.0225V89.9062H98.5819V86.835Z" fill="white"/>
<path d="M104.575 89.9064H102.015V88.3708C102.015 87.6541 102.578 87.0911 103.295 87.0911C104.011 87.0911 104.575 87.6541 104.575 88.3708V89.9064Z" fill="white"/>
<path d="M107.53 86.835H104.97V89.9062H107.53V86.835Z" fill="white"/>
<path d="M109.246 89.6503C108.53 89.6503 107.967 89.0872 107.967 88.3706V86.835H110.526V88.3706C110.526 89.0872 109.963 89.6503 109.246 89.6503Z" fill="white"/>
<path d="M46.643 92.6346C47.3497 92.6346 47.9227 92.0616 47.9227 91.3549C47.9227 90.6481 47.3497 90.0752 46.643 90.0752C45.9362 90.0752 45.3633 90.6481 45.3633 91.3549C45.3633 92.0616 45.9362 92.6346 46.643 92.6346Z" fill="white"/>
<path d="M53.8787 92.8905H51.3193V91.3549C51.3193 90.6383 51.8824 90.0752 52.599 90.0752C53.3157 90.0752 53.8787 90.6383 53.8787 91.3549V92.8905Z" fill="white"/>
<path d="M55.5868 92.6346C56.2936 92.6346 56.8665 92.0616 56.8665 91.3549C56.8665 90.6481 56.2936 90.0752 55.5868 90.0752C54.8801 90.0752 54.3071 90.6481 54.3071 91.3549C54.3071 92.0616 54.8801 92.6346 55.5868 92.6346Z" fill="white"/>
<path d="M62.8226 89.8228H60.2632V92.894H62.8226V89.8228Z" fill="white"/>
<path d="M67.4945 92.6346C68.2013 92.6346 68.7742 92.0616 68.7742 91.3549C68.7742 90.6481 68.2013 90.0752 67.4945 90.0752C66.7878 90.0752 66.2148 90.6481 66.2148 91.3549C66.2148 92.0616 66.7878 92.6346 67.4945 92.6346Z" fill="white"/>
<path d="M70.4745 92.6346C71.1813 92.6346 71.7542 92.0616 71.7542 91.3549C71.7542 90.6481 71.1813 90.0752 70.4745 90.0752C69.7678 90.0752 69.1948 90.6481 69.1948 91.3549C69.1948 92.0616 69.7678 92.6346 70.4745 92.6346Z" fill="white"/>
<path d="M74.7464 89.8228H72.187V92.894H74.7464V89.8228Z" fill="white"/>
<path d="M79.4267 92.6346C80.1334 92.6346 80.7064 92.0616 80.7064 91.3549C80.7064 90.6481 80.1334 90.0752 79.4267 90.0752C78.7199 90.0752 78.147 90.6481 78.147 91.3549C78.147 92.0616 78.7199 92.6346 79.4267 92.6346Z" fill="white"/>
<path d="M83.6986 92.8905H81.1392V91.3549C81.1392 90.6383 81.7022 90.0752 82.4189 90.0752C83.1355 90.0752 83.6986 90.6383 83.6986 91.3549V92.8905Z" fill="white"/>
<path d="M86.6785 89.8228H84.1191V92.894H86.6785V89.8228Z" fill="white"/>
<path d="M91.3666 92.6346C92.0734 92.6346 92.6463 92.0616 92.6463 91.3549C92.6463 90.6481 92.0734 90.0752 91.3666 90.0752C90.6599 90.0752 90.0869 90.6481 90.0869 91.3549C90.0869 92.0616 90.6599 92.6346 91.3666 92.6346Z" fill="white"/>
<path d="M98.5819 89.8228H96.0225V92.894H98.5819V89.8228Z" fill="white"/>
<path d="M101.582 92.8905H99.0229V91.3549C99.0229 90.6383 99.586 90.0752 100.303 90.0752C101.019 90.0752 101.582 90.6383 101.582 91.3549V92.8905Z" fill="white"/>
<path d="M104.575 89.8228H102.015V92.894H104.575V89.8228Z" fill="white"/>
<path d="M107.53 89.8228H104.97V92.894H107.53V89.8228Z" fill="white"/>
<path d="M41.9461 95.8786H39.3867V94.3429C39.3867 93.6263 39.9498 93.0632 40.6664 93.0632C41.383 93.0632 41.9461 93.6263 41.9461 94.3429V95.8786Z" fill="white"/>
<path d="M44.9305 95.8786H42.3711V94.3429C42.3711 93.6263 42.9342 93.0632 43.6508 93.0632C44.3674 93.0632 44.9305 93.6263 44.9305 94.3429V95.8786Z" fill="white"/>
<path d="M49.6147 95.6226C50.3214 95.6226 50.8944 95.0497 50.8944 94.3429C50.8944 93.6362 50.3214 93.0632 49.6147 93.0632C48.9079 93.0632 48.335 93.6362 48.335 94.3429C48.335 95.0497 48.9079 95.6226 49.6147 95.6226Z" fill="white"/>
<path d="M53.8787 92.8113H51.3193V95.8826H53.8787V92.8113Z" fill="white"/>
<path d="M62.8226 92.8113H60.2632V95.8826H62.8226V92.8113Z" fill="white"/>
<path d="M73.4667 95.6266C72.7501 95.6266 72.187 95.0635 72.187 94.3469V92.8113H74.7464V94.3469C74.7464 95.0635 74.1833 95.6266 73.4667 95.6266Z" fill="white"/>
<path d="M82.4189 95.6266C81.7022 95.6266 81.1392 95.0635 81.1392 94.3469V92.8113H83.6986V94.3469C83.6986 95.0635 83.1355 95.6266 82.4189 95.6266Z" fill="white"/>
<path d="M86.6785 92.8113H84.1191V95.8826H86.6785V92.8113Z" fill="white"/>
<path d="M98.5819 92.8113H96.0225V95.8826H98.5819V92.8113Z" fill="white"/>
<path d="M101.582 92.8113H99.0229V95.8826H101.582V92.8113Z" fill="white"/>
<path d="M103.295 95.6266C102.578 95.6266 102.015 95.0635 102.015 94.3469V92.8113H104.575V94.3469C104.575 95.0635 104.011 95.6266 103.295 95.6266Z" fill="white"/>
<path d="M107.53 92.8113H104.97V95.8826H107.53V92.8113Z" fill="white"/>
<path d="M110.526 95.8786H107.967V94.3429C107.967 93.6263 108.53 93.0632 109.246 93.0632C109.963 93.0632 110.526 93.6263 110.526 94.3429V95.8786Z" fill="white"/>
<path d="M38.9661 98.8585H36.4067V97.3229C36.4067 96.6063 36.9698 96.0432 37.6864 96.0432C38.4031 96.0432 38.9661 96.6063 38.9661 97.3229V98.8585Z" fill="white"/>
<path d="M40.6664 98.5939C39.9498 98.5939 39.3867 98.0308 39.3867 97.3142V95.7786H41.9461V97.3142C41.9461 98.0308 41.383 98.5939 40.6664 98.5939Z" fill="white"/>
<path d="M43.6508 98.5939C42.9342 98.5939 42.3711 98.0308 42.3711 97.3142V95.7786H44.9305V97.3142C44.9305 98.0308 44.3674 98.5939 43.6508 98.5939Z" fill="white"/>
<path d="M52.599 98.5939C51.8824 98.5939 51.3193 98.0308 51.3193 97.3142V95.7786H53.8787V97.3142C53.8787 98.0308 53.3157 98.5939 52.599 98.5939Z" fill="white"/>
<path d="M55.5868 98.6026C56.2936 98.6026 56.8665 98.0297 56.8665 97.3229C56.8665 96.6162 56.2936 96.0432 55.5868 96.0432C54.8801 96.0432 54.3071 96.6162 54.3071 97.3229C54.3071 98.0297 54.8801 98.6026 55.5868 98.6026Z" fill="white"/>
<path d="M62.8226 95.7786H60.2632V98.8498H62.8226V95.7786Z" fill="white"/>
<path d="M76.4467 98.6026C77.1534 98.6026 77.7264 98.0297 77.7264 97.3229C77.7264 96.6162 77.1534 96.0432 76.4467 96.0432C75.7399 96.0432 75.167 96.6162 75.167 97.3229C75.167 98.0297 75.7399 98.6026 76.4467 98.6026Z" fill="white"/>
<path d="M79.4267 98.6026C80.1334 98.6026 80.7064 98.0297 80.7064 97.3229C80.7064 96.6162 80.1334 96.0432 79.4267 96.0432C78.7199 96.0432 78.147 96.6162 78.147 97.3229C78.147 98.0297 78.7199 98.6026 79.4267 98.6026Z" fill="white"/>
<path d="M85.3988 98.5939C84.6822 98.5939 84.1191 98.0308 84.1191 97.3142V95.7786H86.6785V97.3142C86.6785 98.0308 86.1155 98.5939 85.3988 98.5939Z" fill="white"/>
<path d="M89.6502 98.8585H87.0908V97.3229C87.0908 96.6063 87.6539 96.0432 88.3705 96.0432C89.0871 96.0432 89.6502 96.6063 89.6502 97.3229V98.8585Z" fill="white"/>
<path d="M91.3666 98.6026C92.0734 98.6026 92.6463 98.0297 92.6463 97.3229C92.6463 96.6162 92.0734 96.0432 91.3666 96.0432C90.6599 96.0432 90.0869 96.6162 90.0869 97.3229C90.0869 98.0297 90.6599 98.6026 91.3666 98.6026Z" fill="white"/>
<path d="M94.3427 98.6026C95.0494 98.6026 95.6224 98.0297 95.6224 97.3229C95.6224 96.6162 95.0494 96.0432 94.3427 96.0432C93.6359 96.0432 93.063 96.6162 93.063 97.3229C93.063 98.0297 93.6359 98.6026 94.3427 98.6026Z" fill="white"/>
<path d="M98.5819 95.7786H96.0225V98.8498H98.5819V95.7786Z" fill="white"/>
<path d="M101.582 95.7786H99.0229V98.8498H101.582V95.7786Z" fill="white"/>
<path d="M107.53 95.7786H104.97V98.8498H107.53V95.7786Z" fill="white"/>
<path d="M109.246 98.5939C108.53 98.5939 107.967 98.0308 107.967 97.3142V95.7786H110.526V97.3142C110.526 98.0308 109.963 98.5939 109.246 98.5939Z" fill="white"/>
<path d="M38.9661 98.7588H36.4067V101.83H38.9661V98.7588Z" fill="white"/>
<path d="M46.643 101.583C47.3497 101.583 47.9227 101.01 47.9227 100.303C47.9227 99.5961 47.3497 99.0232 46.643 99.0232C45.9362 99.0232 45.3633 99.5961 45.3633 100.303C45.3633 101.01 45.9362 101.583 46.643 101.583Z" fill="white"/>
<path d="M49.6147 101.583C50.3214 101.583 50.8944 101.01 50.8944 100.303C50.8944 99.5961 50.3214 99.0232 49.6147 99.0232C48.9079 99.0232 48.335 99.5961 48.335 100.303C48.335 101.01 48.9079 101.583 49.6147 101.583Z" fill="white"/>
<path d="M62.8226 98.7588H60.2632V101.83H62.8226V98.7588Z" fill="white"/>
<path d="M65.8026 101.839H63.2432V100.303C63.2432 99.5863 63.8062 99.0232 64.5229 99.0232C65.2395 99.0232 65.8026 99.5863 65.8026 100.303V101.839Z" fill="white"/>
<path d="M73.4667 101.583C74.1735 101.583 74.7464 101.01 74.7464 100.303C74.7464 99.5961 74.1735 99.0232 73.4667 99.0232C72.76 99.0232 72.187 99.5961 72.187 100.303C72.187 101.01 72.76 101.583 73.4667 101.583Z" fill="white"/>
<path d="M89.6502 98.7588H87.0908V101.83H89.6502V98.7588Z" fill="white"/>
<path d="M97.3022 101.574C96.5855 101.574 96.0225 101.011 96.0225 100.294V98.7588H98.5819V100.294C98.5819 101.011 98.0188 101.574 97.3022 101.574Z" fill="white"/>
<path d="M100.303 101.574C99.586 101.574 99.0229 101.011 99.0229 100.294V98.7588H101.582V100.294C101.582 101.011 101.019 101.574 100.303 101.574Z" fill="white"/>
<path d="M106.25 101.574C105.533 101.574 104.97 101.011 104.97 100.294V98.7588H107.53V100.294C107.53 101.011 106.967 101.574 106.25 101.574Z" fill="white"/>
<path d="M37.6864 104.566C36.9698 104.566 36.4067 104.003 36.4067 103.286V101.751H38.9661V103.286C38.9661 104.003 38.4031 104.566 37.6864 104.566Z" fill="white"/>
<path d="M40.6664 104.558C41.3732 104.558 41.9461 103.985 41.9461 103.279C41.9461 102.572 41.3732 101.999 40.6664 101.999C39.9597 101.999 39.3867 102.572 39.3867 103.279C39.3867 103.985 39.9597 104.558 40.6664 104.558Z" fill="white"/>
<path d="M56.8665 104.814H54.3071V103.279C54.3071 102.562 54.8702 101.999 55.5868 101.999C56.3035 101.999 56.8665 102.562 56.8665 103.279V104.814Z" fill="white"/>
<path d="M62.8226 101.751H60.2632V104.822H62.8226V101.751Z" fill="white"/>
<path d="M64.5229 104.566C63.8062 104.566 63.2432 104.003 63.2432 103.286V101.751H65.8026V103.286C65.8026 104.003 65.2395 104.566 64.5229 104.566Z" fill="white"/>
<path d="M71.7542 104.814H69.1948V103.279C69.1948 102.562 69.7579 101.999 70.4745 101.999C71.1912 101.999 71.7542 102.562 71.7542 103.279V104.814Z" fill="white"/>
<path d="M77.7264 104.814H75.167V103.279C75.167 102.562 75.7301 101.999 76.4467 101.999C77.1633 101.999 77.7264 102.562 77.7264 103.279V104.814Z" fill="white"/>
<path d="M79.4267 104.558C80.1334 104.558 80.7064 103.985 80.7064 103.279C80.7064 102.572 80.1334 101.999 79.4267 101.999C78.7199 101.999 78.147 102.572 78.147 103.279C78.147 103.985 78.7199 104.558 79.4267 104.558Z" fill="white"/>
<path d="M82.4189 104.558C83.1256 104.558 83.6986 103.985 83.6986 103.279C83.6986 102.572 83.1256 101.999 82.4189 101.999C81.7121 101.999 81.1392 102.572 81.1392 103.279C81.1392 103.985 81.7121 104.558 82.4189 104.558Z" fill="white"/>
<path d="M89.6502 101.751H87.0908V104.822H89.6502V101.751Z" fill="white"/>
<path d="M92.6463 104.814H90.0869V103.279C90.0869 102.562 90.65 101.999 91.3666 101.999C92.0832 101.999 92.6463 102.562 92.6463 103.279V104.814Z" fill="white"/>
<path d="M46.643 107.53C47.3497 107.53 47.9227 106.957 47.9227 106.25C47.9227 105.544 47.3497 104.971 46.643 104.971C45.9362 104.971 45.3633 105.544 45.3633 106.25C45.3633 106.957 45.9362 107.53 46.643 107.53Z" fill="white"/>
<path d="M52.599 107.53C53.3058 107.53 53.8787 106.957 53.8787 106.25C53.8787 105.544 53.3058 104.971 52.599 104.971C51.8923 104.971 51.3193 105.544 51.3193 106.25C51.3193 106.957 51.8923 107.53 52.599 107.53Z" fill="white"/>
<path d="M55.5868 107.546C54.8702 107.546 54.3071 106.983 54.3071 106.267V104.731H56.8665V106.267C56.8665 106.983 56.3035 107.546 55.5868 107.546Z" fill="white"/>
<path d="M58.5668 107.53C59.2736 107.53 59.8465 106.957 59.8465 106.25C59.8465 105.544 59.2736 104.971 58.5668 104.971C57.86 104.971 57.2871 105.544 57.2871 106.25C57.2871 106.957 57.86 107.53 58.5668 107.53Z" fill="white"/>
<path d="M61.5429 107.546C60.8263 107.546 60.2632 106.983 60.2632 106.267V104.731H62.8226V106.267C62.8226 106.983 62.2595 107.546 61.5429 107.546Z" fill="white"/>
<path d="M71.7542 104.731H69.1948V107.802H71.7542V104.731Z" fill="white"/>
<path d="M77.7264 104.731H75.167V107.802H77.7264V104.731Z" fill="white"/>
<path d="M88.3705 107.546C87.6539 107.546 87.0908 106.983 87.0908 106.267V104.731H89.6502V106.267C89.6502 106.983 89.0871 107.546 88.3705 107.546Z" fill="white"/>
<path d="M92.6463 104.731H90.0869V107.802H92.6463V104.731Z" fill="white"/>
<path d="M94.3427 107.53C95.0494 107.53 95.6224 106.957 95.6224 106.25C95.6224 105.544 95.0494 104.971 94.3427 104.971C93.6359 104.971 93.063 105.544 93.063 106.25C93.063 106.957 93.6359 107.53 94.3427 107.53Z" fill="white"/>
<path d="M100.303 107.53C101.009 107.53 101.582 106.957 101.582 106.25C101.582 105.544 101.009 104.971 100.303 104.971C99.5959 104.971 99.0229 105.544 99.0229 106.25C99.0229 106.957 99.5959 107.53 100.303 107.53Z" fill="white"/>
<path d="M43.6508 110.526C44.3575 110.526 44.9305 109.953 44.9305 109.247C44.9305 108.54 44.3575 107.967 43.6508 107.967C42.944 107.967 42.3711 108.54 42.3711 109.247C42.3711 109.953 42.944 110.526 43.6508 110.526Z" fill="white"/>
<path d="M49.6147 110.526C50.3214 110.526 50.8944 109.953 50.8944 109.247C50.8944 108.54 50.3214 107.967 49.6147 107.967C48.9079 107.967 48.335 108.54 48.335 109.247C48.335 109.953 48.9079 110.526 49.6147 110.526Z" fill="white"/>
<path d="M64.5229 110.526C65.2296 110.526 65.8026 109.953 65.8026 109.247C65.8026 108.54 65.2296 107.967 64.5229 107.967C63.8161 107.967 63.2432 108.54 63.2432 109.247C63.2432 109.953 63.8161 110.526 64.5229 110.526Z" fill="white"/>
<path d="M67.4945 110.526C68.2013 110.526 68.7742 109.953 68.7742 109.247C68.7742 108.54 68.2013 107.967 67.4945 107.967C66.7878 107.967 66.2148 108.54 66.2148 109.247C66.2148 109.953 66.7878 110.526 67.4945 110.526Z" fill="white"/>
<path d="M70.4745 110.53C69.7579 110.53 69.1948 109.967 69.1948 109.251V107.715H71.7542V109.251C71.7542 109.967 71.1912 110.53 70.4745 110.53Z" fill="white"/>
<path d="M73.4667 110.526C74.1735 110.526 74.7464 109.953 74.7464 109.247C74.7464 108.54 74.1735 107.967 73.4667 107.967C72.76 107.967 72.187 108.54 72.187 109.247C72.187 109.953 72.76 110.526 73.4667 110.526Z" fill="white"/>
<path d="M76.4467 110.53C75.7301 110.53 75.167 109.967 75.167 109.251V107.715H77.7264V109.251C77.7264 109.967 77.1633 110.53 76.4467 110.53Z" fill="white"/>
<path d="M82.4189 110.526C83.1256 110.526 83.6986 109.953 83.6986 109.247C83.6986 108.54 83.1256 107.967 82.4189 107.967C81.7121 107.967 81.1392 108.54 81.1392 109.247C81.1392 109.953 81.7121 110.526 82.4189 110.526Z" fill="white"/>
<path d="M85.3988 110.526C86.1056 110.526 86.6785 109.953 86.6785 109.247C86.6785 108.54 86.1056 107.967 85.3988 107.967C84.6921 107.967 84.1191 108.54 84.1191 109.247C84.1191 109.953 84.6921 110.526 85.3988 110.526Z" fill="white"/>
<path d="M91.3666 110.53C90.65 110.53 90.0869 109.967 90.0869 109.251V107.715H92.6463V109.251C92.6463 109.967 92.0832 110.53 91.3666 110.53Z" fill="white"/>
<path d="M103.295 110.526C104.002 110.526 104.575 109.953 104.575 109.247C104.575 108.54 104.002 107.967 103.295 107.967C102.588 107.967 102.015 108.54 102.015 109.247C102.015 109.953 102.588 110.526 103.295 110.526Z" fill="white"/>
<path d="M106.25 110.526C106.957 110.526 107.53 109.953 107.53 109.247C107.53 108.54 106.957 107.967 106.25 107.967C105.543 107.967 104.97 108.54 104.97 109.247C104.97 109.953 105.543 110.526 106.25 110.526Z" fill="white"/>
<path d="M19.0025 33.1664H26.6062C30.1844 33.1664 33.1662 30.1846 33.1662 26.6064V19.0028C33.1662 15.2755 30.1844 12.2937 26.4571 12.2937H18.8535C15.2753 12.2937 12.2935 15.2755 12.2935 18.8537V26.4573C12.2935 30.1846 15.2753 33.1664 19.0025 33.1664ZM30.1844 19.4501V26.0101C30.1844 28.2464 28.2462 30.1846 26.0098 30.1846H19.4498C17.0644 30.1846 15.2753 28.3955 15.2753 26.0101V19.4501C15.2753 17.2137 17.2135 15.2755 19.4498 15.2755H26.0098C28.3953 15.2755 30.1844 17.0646 30.1844 19.4501Z" fill="white"/>
<path d="M96.545 33.1664H104.149C107.727 33.1664 110.709 30.1846 110.709 26.6064V19.0028C110.709 15.2755 107.727 12.2937 104 12.2937H96.3959C92.8178 12.2937 89.8359 15.2755 89.8359 18.8537V26.4573C89.8359 30.1846 92.8178 33.1664 96.545 33.1664ZM107.727 19.4501V26.0101C107.727 28.2464 105.789 30.1846 103.552 30.1846H96.9923C94.6068 30.1846 92.8178 28.3955 92.8178 26.0101V19.4501C92.8178 17.2137 94.7559 15.2755 96.9923 15.2755H103.552C105.938 15.2755 107.727 17.0646 107.727 19.4501Z" fill="white"/>
<path d="M12.2935 89.8262V110.699H33.1662V89.8262H12.2935ZM30.1844 107.717H15.2753V92.808H30.1844V107.717Z" fill="white"/>
<path d="M27.1925 20.8046V24.83C27.1925 26.0227 25.9998 27.2155 24.658 27.2155H20.7816C19.2907 27.2155 18.2471 26.1718 18.2471 24.6809V20.8046C18.2471 19.4627 19.4398 18.27 20.7816 18.27H24.8071C26.1489 18.27 27.1925 19.3137 27.1925 20.8046Z" fill="white"/>
<path d="M104.725 20.8046V24.83C104.725 26.0227 103.532 27.2155 102.19 27.2155H98.3138C96.8229 27.2155 95.7793 26.1718 95.7793 24.6809V20.8046C95.7793 19.4627 96.972 18.27 98.3138 18.27H102.339C103.681 18.27 104.725 19.3137 104.725 20.8046Z" fill="white"/>
<path d="M27.1925 95.7795H18.2471V104.725H27.1925V95.7795Z" fill="white"/>
</svg>
